ISO-10303-21;
HEADER;
/* Generated by software containing ST-Developer
 * from STEP Tools, Inc. (www.steptools.com) 
 */

FILE_DESCRIPTION(
/* description */ (''),
/* implementation_level */ '2;1');

FILE_NAME(
/* name */ 'Antenna Mount.step',
/* time_stamp */ '2026-08-07T16:01:22-06:00',
/* author */ (''),
/* organization */ (''),
/* preprocessor_version */ 'ST-DEVELOPER v20.1',
/* originating_system */ 'Autodesk Translation Framework v15.8.0.0',
/* authorisation */ '');

FILE_SCHEMA (('AUTOMOTIVE_DESIGN { 1 0 10303 214 3 1 1 }'));
ENDSEC;

DATA;
#10=MECHANICAL_DESIGN_GEOMETRIC_PRESENTATION_REPRESENTATION('',(#13,#14),
#830);
#11=SHAPE_REPRESENTATION_RELATIONSHIP('SRR','None',#837,#12);
#12=ADVANCED_BREP_SHAPE_REPRESENTATION('',(#15,#16),#829);
#13=STYLED_ITEM('',(#846),#15);
#14=STYLED_ITEM('',(#846),#16);
#15=MANIFOLD_SOLID_BREP('Body1',#443);
#16=MANIFOLD_SOLID_BREP('Body5',#444);
#17=FACE_BOUND('',#83,.T.);
#18=FACE_BOUND('',#87,.T.);
#19=FACE_BOUND('',#90,.T.);
#20=FACE_BOUND('',#92,.T.);
#21=FACE_BOUND('',#99,.T.);
#22=FACE_BOUND('',#102,.T.);
#23=FACE_BOUND('',#104,.T.);
#24=FACE_BOUND('',#105,.T.);
#25=FACE_BOUND('',#106,.T.);
#26=FACE_BOUND('',#111,.T.);
#27=CIRCLE('',#465,1.5);
#28=CIRCLE('',#467,2.25);
#29=CIRCLE('',#468,2.25);
#30=CIRCLE('',#472,4.25);
#31=CIRCLE('',#473,4.25);
#32=CIRCLE('',#477,1.5);
#33=CIRCLE('',#479,1.5);
#34=CIRCLE('',#481,1.5);
#35=CIRCLE('',#482,1.5);
#36=CIRCLE('',#484,1.5);
#37=CIRCLE('',#496,2.25);
#38=CIRCLE('',#497,2.25);
#39=CIRCLE('',#498,2.25);
#40=CIRCLE('',#500,4.25);
#41=CIRCLE('',#501,4.25);
#42=CIRCLE('',#502,4.25);
#43=PLANE('',#464);
#44=PLANE('',#469);
#45=PLANE('',#470);
#46=PLANE('',#474);
#47=PLANE('',#475);
#48=PLANE('',#476);
#49=PLANE('',#485);
#50=PLANE('',#486);
#51=PLANE('',#487);
#52=PLANE('',#488);
#53=PLANE('',#489);
#54=PLANE('',#490);
#55=PLANE('',#503);
#56=PLANE('',#504);
#57=FACE_OUTER_BOUND('',#80,.T.);
#58=FACE_OUTER_BOUND('',#81,.T.);
#59=FACE_OUTER_BOUND('',#82,.T.);
#60=FACE_OUTER_BOUND('',#84,.T.);
#61=FACE_OUTER_BOUND('',#85,.T.);
#62=FACE_OUTER_BOUND('',#86,.T.);
#63=FACE_OUTER_BOUND('',#88,.T.);
#64=FACE_OUTER_BOUND('',#89,.T.);
#65=FACE_OUTER_BOUND('',#91,.T.);
#66=FACE_OUTER_BOUND('',#93,.T.);
#67=FACE_OUTER_BOUND('',#94,.T.);
#68=FACE_OUTER_BOUND('',#95,.T.);
#69=FACE_OUTER_BOUND('',#96,.T.);
#70=FACE_OUTER_BOUND('',#97,.T.);
#71=FACE_OUTER_BOUND('',#98,.T.);
#72=FACE_OUTER_BOUND('',#100,.T.);
#73=FACE_OUTER_BOUND('',#101,.T.);
#74=FACE_OUTER_BOUND('',#103,.T.);
#75=FACE_OUTER_BOUND('',#107,.T.);
#76=FACE_OUTER_BOUND('',#108,.T.);
#77=FACE_OUTER_BOUND('',#109,.T.);
#78=FACE_OUTER_BOUND('',#110,.T.);
#79=FACE_OUTER_BOUND('',#112,.T.);
#80=EDGE_LOOP('',(#291,#292,#293,#294,#295,#296,#297,#298,#299));
#81=EDGE_LOOP('',(#300));
#82=EDGE_LOOP('',(#301,#302,#303,#304));
#83=EDGE_LOOP('',(#305,#306,#307,#308,#309));
#84=EDGE_LOOP('',(#310,#311,#312,#313));
#85=EDGE_LOOP('',(#314,#315,#316,#317,#318));
#86=EDGE_LOOP('',(#319,#320,#321,#322));
#87=EDGE_LOOP('',(#323,#324));
#88=EDGE_LOOP('',(#325,#326,#327,#328,#329));
#89=EDGE_LOOP('',(#330,#331,#332,#333));
#90=EDGE_LOOP('',(#334));
#91=EDGE_LOOP('',(#335,#336,#337,#338));
#92=EDGE_LOOP('',(#339));
#93=EDGE_LOOP('',(#340,#341,#342,#343));
#94=EDGE_LOOP('',(#344,#345,#346,#347));
#95=EDGE_LOOP('',(#348,#349,#350,#351));
#96=EDGE_LOOP('',(#352,#353,#354,#355,#356,#357));
#97=EDGE_LOOP('',(#358,#359,#360,#361));
#98=EDGE_LOOP('',(#362,#363,#364,#365,#366,#367,#368,#369));
#99=EDGE_LOOP('',(#370));
#100=EDGE_LOOP('',(#371,#372,#373,#374));
#101=EDGE_LOOP('',(#375,#376,#377,#378));
#102=EDGE_LOOP('',(#379));
#103=EDGE_LOOP('',(#380,#381,#382,#383));
#104=EDGE_LOOP('',(#384));
#105=EDGE_LOOP('',(#385));
#106=EDGE_LOOP('',(#386));
#107=EDGE_LOOP('',(#387,#388,#389,#390));
#108=EDGE_LOOP('',(#391,#392,#393,#394,#395,#396));
#109=EDGE_LOOP('',(#397,#398,#399,#400,#401,#402));
#110=EDGE_LOOP('',(#403));
#111=EDGE_LOOP('',(#404));
#112=EDGE_LOOP('',(#405,#406,#407,#408,#409,#410));
#113=ELLIPSE('',#459,3.18198051533946,2.25);
#114=ELLIPSE('',#460,2.43538245065789,2.25);
#115=ELLIPSE('',#461,3.18198051533946,2.25);
#116=ELLIPSE('',#462,5.87953334194369,2.25);
#117=ELLIPSE('',#463,3.18198051533946,2.25);
#118=ELLIPSE('',#492,3.18198051533946,2.25);
#119=ELLIPSE('',#493,5.87953334194369,2.25);
#120=ELLIPSE('',#494,3.18198051533946,2.25);
#121=LINE('',#679,#154);
#122=LINE('',#696,#155);
#123=LINE('',#701,#156);
#124=LINE('',#703,#157);
#125=LINE('',#705,#158);
#126=LINE('',#706,#159);
#127=LINE('',#710,#160);
#128=LINE('',#711,#161);
#129=LINE('',#713,#162);
#130=LINE('',#714,#163);
#131=LINE('',#720,#164);
#132=LINE('',#723,#165);
#133=LINE('',#724,#166);
#134=LINE('',#725,#167);
#135=LINE('',#729,#168);
#136=LINE('',#731,#169);
#137=LINE('',#732,#170);
#138=LINE('',#737,#171);
#139=LINE('',#743,#172);
#140=LINE('',#747,#173);
#141=LINE('',#752,#174);
#142=LINE('',#754,#175);
#143=LINE('',#755,#176);
#144=LINE('',#756,#177);
#145=LINE('',#759,#178);
#146=LINE('',#760,#179);
#147=LINE('',#763,#180);
#148=LINE('',#765,#181);
#149=LINE('',#766,#182);
#150=LINE('',#768,#183);
#151=LINE('',#769,#184);
#152=LINE('',#815,#185);
#153=LINE('',#822,#186);
#154=VECTOR('',#509,2.25);
#155=VECTOR('',#528,2.25);
#156=VECTOR('',#533,10.);
#157=VECTOR('',#534,10.);
#158=VECTOR('',#535,10.);
#159=VECTOR('',#536,10.);
#160=VECTOR('',#539,10.);
#161=VECTOR('',#540,10.);
#162=VECTOR('',#541,10.);
#163=VECTOR('',#542,10.);
#164=VECTOR('',#549,10.);
#165=VECTOR('',#552,10.);
#166=VECTOR('',#553,10.);
#167=VECTOR('',#554,10.);
#168=VECTOR('',#559,10.);
#169=VECTOR('',#560,10.);
#170=VECTOR('',#561,10.);
#171=VECTOR('',#566,1.5);
#172=VECTOR('',#573,1.5);
#173=VECTOR('',#578,1.5);
#174=VECTOR('',#583,10.);
#175=VECTOR('',#584,10.);
#176=VECTOR('',#585,10.);
#177=VECTOR('',#586,10.);
#178=VECTOR('',#589,10.);
#179=VECTOR('',#590,10.);
#180=VECTOR('',#593,10.);
#181=VECTOR('',#594,10.);
#182=VECTOR('',#595,10.);
#183=VECTOR('',#598,10.);
#184=VECTOR('',#599,10.);
#185=VECTOR('',#616,2.25);
#186=VECTOR('',#625,4.25);
#187=B_SPLINE_CURVE_WITH_KNOTS('',3,(#638,#639,#640,#641,#642,#643,#644,
#645,#646,#647,#648,#649,#650,#651,#652,#653,#654,#655,#656,#657,#658,#659),
 .UNSPECIFIED.,.F.,.F.,(4,2,2,2,2,2,2,2,2,2,4),(0.,0.145324575162241,0.290649150324481,
0.379510890761014,0.42394176097928,0.468372631197547,0.512803501415813,
0.55723437163408,0.646096112070613,0.791420687232853,0.936745262395093),
 .UNSPECIFIED.);
#188=B_SPLINE_CURVE_WITH_KNOTS('',3,(#660,#661,#662,#663,#664,#665,#666,
#667,#668,#669,#670,#671,#672,#673,#674,#675,#676,#677),.UNSPECIFIED.,.F.,
 .F.,(4,2,2,2,2,2,2,2,4),(0.936745262395093,1.03839124705404,1.14003723171299,
1.23505153503275,1.30872978652703,1.38240803802131,1.47742234134106,1.57906832600002,
1.68071431065897),.UNSPECIFIED.);
#189=B_SPLINE_CURVE_WITH_KNOTS('',3,(#775,#776,#777,#778,#779,#780,#781,
#782,#783,#784,#785,#786,#787,#788,#789,#790,#791,#792,#793,#794,#795,#796,
#797,#798,#799,#800,#801,#802,#803,#804,#805),.UNSPECIFIED.,.F.,.F.,(4,
2,2,2,2,2,2,2,2,2,2,2,3,2,4),(-1.08314808273765,-1.03586818021641,-0.922110034988397,
-0.789327511988508,-0.656544988988619,-0.537217812463747,-0.499136414978973,
-0.461055017494198,-0.422973620009424,-0.38489222252465,-0.265565045999778,
-0.132782522999889,0.,0.113758145228009,0.161038047749258),
 .UNSPECIFIED.);
#190=VERTEX_POINT('',#636);
#191=VERTEX_POINT('',#637);
#192=VERTEX_POINT('',#678);
#193=VERTEX_POINT('',#680);
#194=VERTEX_POINT('',#682);
#195=VERTEX_POINT('',#684);
#196=VERTEX_POINT('',#686);
#197=VERTEX_POINT('',#690);
#198=VERTEX_POINT('',#693);
#199=VERTEX_POINT('',#695);
#200=VERTEX_POINT('',#699);
#201=VERTEX_POINT('',#700);
#202=VERTEX_POINT('',#702);
#203=VERTEX_POINT('',#704);
#204=VERTEX_POINT('',#708);
#205=VERTEX_POINT('',#709);
#206=VERTEX_POINT('',#712);
#207=VERTEX_POINT('',#716);
#208=VERTEX_POINT('',#718);
#209=VERTEX_POINT('',#722);
#210=VERTEX_POINT('',#728);
#211=VERTEX_POINT('',#730);
#212=VERTEX_POINT('',#733);
#213=VERTEX_POINT('',#736);
#214=VERTEX_POINT('',#740);
#215=VERTEX_POINT('',#742);
#216=VERTEX_POINT('',#746);
#217=VERTEX_POINT('',#750);
#218=VERTEX_POINT('',#751);
#219=VERTEX_POINT('',#753);
#220=VERTEX_POINT('',#758);
#221=VERTEX_POINT('',#762);
#222=VERTEX_POINT('',#764);
#223=VERTEX_POINT('',#773);
#224=VERTEX_POINT('',#774);
#225=VERTEX_POINT('',#806);
#226=VERTEX_POINT('',#808);
#227=VERTEX_POINT('',#812);
#228=VERTEX_POINT('',#814);
#229=VERTEX_POINT('',#819);
#230=VERTEX_POINT('',#821);
#231=EDGE_CURVE('',#190,#191,#187,.T.);
#232=EDGE_CURVE('',#191,#190,#188,.T.);
#233=EDGE_CURVE('',#191,#192,#121,.T.);
#234=EDGE_CURVE('',#193,#192,#113,.T.);
#235=EDGE_CURVE('',#194,#193,#114,.T.);
#236=EDGE_CURVE('',#195,#194,#115,.T.);
#237=EDGE_CURVE('',#196,#195,#116,.T.);
#238=EDGE_CURVE('',#192,#196,#117,.T.);
#239=EDGE_CURVE('',#197,#197,#27,.T.);
#240=EDGE_CURVE('',#198,#198,#28,.T.);
#241=EDGE_CURVE('',#198,#199,#122,.T.);
#242=EDGE_CURVE('',#199,#199,#29,.T.);
#243=EDGE_CURVE('',#200,#201,#123,.T.);
#244=EDGE_CURVE('',#201,#202,#124,.T.);
#245=EDGE_CURVE('',#203,#202,#125,.T.);
#246=EDGE_CURVE('',#200,#203,#126,.T.);
#247=EDGE_CURVE('',#204,#205,#127,.T.);
#248=EDGE_CURVE('',#200,#205,#128,.T.);
#249=EDGE_CURVE('',#206,#203,#129,.T.);
#250=EDGE_CURVE('',#204,#206,#130,.T.);
#251=EDGE_CURVE('',#204,#207,#30,.T.);
#252=EDGE_CURVE('',#208,#206,#31,.T.);
#253=EDGE_CURVE('',#207,#208,#131,.T.);
#254=EDGE_CURVE('',#207,#209,#132,.T.);
#255=EDGE_CURVE('',#202,#208,#133,.T.);
#256=EDGE_CURVE('',#209,#201,#134,.T.);
#257=EDGE_CURVE('',#205,#210,#135,.T.);
#258=EDGE_CURVE('',#210,#211,#136,.T.);
#259=EDGE_CURVE('',#211,#200,#137,.T.);
#260=EDGE_CURVE('',#212,#212,#32,.T.);
#261=EDGE_CURVE('',#197,#213,#138,.T.);
#262=EDGE_CURVE('',#213,#213,#33,.T.);
#263=EDGE_CURVE('',#214,#214,#34,.T.);
#264=EDGE_CURVE('',#214,#215,#139,.T.);
#265=EDGE_CURVE('',#215,#215,#35,.T.);
#266=EDGE_CURVE('',#212,#216,#140,.T.);
#267=EDGE_CURVE('',#216,#216,#36,.T.);
#268=EDGE_CURVE('',#217,#218,#141,.T.);
#269=EDGE_CURVE('',#217,#219,#142,.T.);
#270=EDGE_CURVE('',#201,#219,#143,.T.);
#271=EDGE_CURVE('',#218,#211,#144,.T.);
#272=EDGE_CURVE('',#220,#218,#145,.T.);
#273=EDGE_CURVE('',#220,#210,#146,.T.);
#274=EDGE_CURVE('',#221,#220,#147,.T.);
#275=EDGE_CURVE('',#222,#209,#148,.T.);
#276=EDGE_CURVE('',#221,#222,#149,.T.);
#277=EDGE_CURVE('',#221,#217,#150,.T.);
#278=EDGE_CURVE('',#219,#222,#151,.T.);
#279=EDGE_CURVE('',#223,#224,#189,.T.);
#280=EDGE_CURVE('',#225,#223,#118,.T.);
#281=EDGE_CURVE('',#226,#225,#119,.T.);
#282=EDGE_CURVE('',#224,#226,#120,.T.);
#283=EDGE_CURVE('',#227,#227,#37,.T.);
#284=EDGE_CURVE('',#227,#228,#152,.T.);
#285=EDGE_CURVE('',#228,#226,#38,.T.);
#286=EDGE_CURVE('',#225,#228,#39,.T.);
#287=EDGE_CURVE('',#229,#229,#40,.T.);
#288=EDGE_CURVE('',#229,#230,#153,.T.);
#289=EDGE_CURVE('',#230,#223,#41,.T.);
#290=EDGE_CURVE('',#224,#230,#42,.T.);
#291=ORIENTED_EDGE('',*,*,#231,.F.);
#292=ORIENTED_EDGE('',*,*,#232,.F.);
#293=ORIENTED_EDGE('',*,*,#233,.T.);
#294=ORIENTED_EDGE('',*,*,#234,.F.);
#295=ORIENTED_EDGE('',*,*,#235,.F.);
#296=ORIENTED_EDGE('',*,*,#236,.F.);
#297=ORIENTED_EDGE('',*,*,#237,.F.);
#298=ORIENTED_EDGE('',*,*,#238,.F.);
#299=ORIENTED_EDGE('',*,*,#233,.F.);
#300=ORIENTED_EDGE('',*,*,#239,.T.);
#301=ORIENTED_EDGE('',*,*,#240,.F.);
#302=ORIENTED_EDGE('',*,*,#241,.T.);
#303=ORIENTED_EDGE('',*,*,#242,.F.);
#304=ORIENTED_EDGE('',*,*,#241,.F.);
#305=ORIENTED_EDGE('',*,*,#237,.T.);
#306=ORIENTED_EDGE('',*,*,#236,.T.);
#307=ORIENTED_EDGE('',*,*,#235,.T.);
#308=ORIENTED_EDGE('',*,*,#234,.T.);
#309=ORIENTED_EDGE('',*,*,#238,.T.);
#310=ORIENTED_EDGE('',*,*,#243,.T.);
#311=ORIENTED_EDGE('',*,*,#244,.T.);
#312=ORIENTED_EDGE('',*,*,#245,.F.);
#313=ORIENTED_EDGE('',*,*,#246,.F.);
#314=ORIENTED_EDGE('',*,*,#247,.T.);
#315=ORIENTED_EDGE('',*,*,#248,.F.);
#316=ORIENTED_EDGE('',*,*,#246,.T.);
#317=ORIENTED_EDGE('',*,*,#249,.F.);
#318=ORIENTED_EDGE('',*,*,#250,.F.);
#319=ORIENTED_EDGE('',*,*,#251,.F.);
#320=ORIENTED_EDGE('',*,*,#250,.T.);
#321=ORIENTED_EDGE('',*,*,#252,.F.);
#322=ORIENTED_EDGE('',*,*,#253,.F.);
#323=ORIENTED_EDGE('',*,*,#231,.T.);
#324=ORIENTED_EDGE('',*,*,#232,.T.);
#325=ORIENTED_EDGE('',*,*,#254,.F.);
#326=ORIENTED_EDGE('',*,*,#253,.T.);
#327=ORIENTED_EDGE('',*,*,#255,.F.);
#328=ORIENTED_EDGE('',*,*,#244,.F.);
#329=ORIENTED_EDGE('',*,*,#256,.F.);
#330=ORIENTED_EDGE('',*,*,#255,.T.);
#331=ORIENTED_EDGE('',*,*,#252,.T.);
#332=ORIENTED_EDGE('',*,*,#249,.T.);
#333=ORIENTED_EDGE('',*,*,#245,.T.);
#334=ORIENTED_EDGE('',*,*,#240,.T.);
#335=ORIENTED_EDGE('',*,*,#248,.T.);
#336=ORIENTED_EDGE('',*,*,#257,.T.);
#337=ORIENTED_EDGE('',*,*,#258,.T.);
#338=ORIENTED_EDGE('',*,*,#259,.T.);
#339=ORIENTED_EDGE('',*,*,#260,.T.);
#340=ORIENTED_EDGE('',*,*,#239,.F.);
#341=ORIENTED_EDGE('',*,*,#261,.T.);
#342=ORIENTED_EDGE('',*,*,#262,.T.);
#343=ORIENTED_EDGE('',*,*,#261,.F.);
#344=ORIENTED_EDGE('',*,*,#263,.F.);
#345=ORIENTED_EDGE('',*,*,#264,.T.);
#346=ORIENTED_EDGE('',*,*,#265,.T.);
#347=ORIENTED_EDGE('',*,*,#264,.F.);
#348=ORIENTED_EDGE('',*,*,#260,.F.);
#349=ORIENTED_EDGE('',*,*,#266,.T.);
#350=ORIENTED_EDGE('',*,*,#267,.T.);
#351=ORIENTED_EDGE('',*,*,#266,.F.);
#352=ORIENTED_EDGE('',*,*,#268,.F.);
#353=ORIENTED_EDGE('',*,*,#269,.T.);
#354=ORIENTED_EDGE('',*,*,#270,.F.);
#355=ORIENTED_EDGE('',*,*,#243,.F.);
#356=ORIENTED_EDGE('',*,*,#259,.F.);
#357=ORIENTED_EDGE('',*,*,#271,.F.);
#358=ORIENTED_EDGE('',*,*,#272,.T.);
#359=ORIENTED_EDGE('',*,*,#271,.T.);
#360=ORIENTED_EDGE('',*,*,#258,.F.);
#361=ORIENTED_EDGE('',*,*,#273,.F.);
#362=ORIENTED_EDGE('',*,*,#274,.T.);
#363=ORIENTED_EDGE('',*,*,#273,.T.);
#364=ORIENTED_EDGE('',*,*,#257,.F.);
#365=ORIENTED_EDGE('',*,*,#247,.F.);
#366=ORIENTED_EDGE('',*,*,#251,.T.);
#367=ORIENTED_EDGE('',*,*,#254,.T.);
#368=ORIENTED_EDGE('',*,*,#275,.F.);
#369=ORIENTED_EDGE('',*,*,#276,.F.);
#370=ORIENTED_EDGE('',*,*,#242,.T.);
#371=ORIENTED_EDGE('',*,*,#277,.F.);
#372=ORIENTED_EDGE('',*,*,#276,.T.);
#373=ORIENTED_EDGE('',*,*,#278,.F.);
#374=ORIENTED_EDGE('',*,*,#269,.F.);
#375=ORIENTED_EDGE('',*,*,#256,.T.);
#376=ORIENTED_EDGE('',*,*,#270,.T.);
#377=ORIENTED_EDGE('',*,*,#278,.T.);
#378=ORIENTED_EDGE('',*,*,#275,.T.);
#379=ORIENTED_EDGE('',*,*,#263,.T.);
#380=ORIENTED_EDGE('',*,*,#277,.T.);
#381=ORIENTED_EDGE('',*,*,#268,.T.);
#382=ORIENTED_EDGE('',*,*,#272,.F.);
#383=ORIENTED_EDGE('',*,*,#274,.F.);
#384=ORIENTED_EDGE('',*,*,#267,.F.);
#385=ORIENTED_EDGE('',*,*,#265,.F.);
#386=ORIENTED_EDGE('',*,*,#262,.F.);
#387=ORIENTED_EDGE('',*,*,#279,.F.);
#388=ORIENTED_EDGE('',*,*,#280,.F.);
#389=ORIENTED_EDGE('',*,*,#281,.F.);
#390=ORIENTED_EDGE('',*,*,#282,.F.);
#391=ORIENTED_EDGE('',*,*,#283,.F.);
#392=ORIENTED_EDGE('',*,*,#284,.T.);
#393=ORIENTED_EDGE('',*,*,#285,.T.);
#394=ORIENTED_EDGE('',*,*,#281,.T.);
#395=ORIENTED_EDGE('',*,*,#286,.T.);
#396=ORIENTED_EDGE('',*,*,#284,.F.);
#397=ORIENTED_EDGE('',*,*,#287,.F.);
#398=ORIENTED_EDGE('',*,*,#288,.T.);
#399=ORIENTED_EDGE('',*,*,#289,.T.);
#400=ORIENTED_EDGE('',*,*,#279,.T.);
#401=ORIENTED_EDGE('',*,*,#290,.T.);
#402=ORIENTED_EDGE('',*,*,#288,.F.);
#403=ORIENTED_EDGE('',*,*,#287,.T.);
#404=ORIENTED_EDGE('',*,*,#283,.T.);
#405=ORIENTED_EDGE('',*,*,#282,.T.);
#406=ORIENTED_EDGE('',*,*,#285,.F.);
#407=ORIENTED_EDGE('',*,*,#286,.F.);
#408=ORIENTED_EDGE('',*,*,#280,.T.);
#409=ORIENTED_EDGE('',*,*,#289,.F.);
#410=ORIENTED_EDGE('',*,*,#290,.F.);
#411=CYLINDRICAL_SURFACE('',#458,2.25);
#412=CYLINDRICAL_SURFACE('',#466,2.25);
#413=CYLINDRICAL_SURFACE('',#471,4.25);
#414=CYLINDRICAL_SURFACE('',#478,1.5);
#415=CYLINDRICAL_SURFACE('',#480,1.5);
#416=CYLINDRICAL_SURFACE('',#483,1.5);
#417=CYLINDRICAL_SURFACE('',#491,2.25);
#418=CYLINDRICAL_SURFACE('',#495,2.25);
#419=CYLINDRICAL_SURFACE('',#499,4.25);
#420=ADVANCED_FACE('',(#57),#411,.F.);
#421=ADVANCED_FACE('',(#58),#43,.T.);
#422=ADVANCED_FACE('',(#59,#17),#412,.F.);
#423=ADVANCED_FACE('',(#60),#44,.T.);
#424=ADVANCED_FACE('',(#61),#45,.T.);
#425=ADVANCED_FACE('',(#62,#18),#413,.T.);
#426=ADVANCED_FACE('',(#63),#46,.T.);
#427=ADVANCED_FACE('',(#64,#19),#47,.F.);
#428=ADVANCED_FACE('',(#65,#20),#48,.T.);
#429=ADVANCED_FACE('',(#66),#414,.F.);
#430=ADVANCED_FACE('',(#67),#415,.F.);
#431=ADVANCED_FACE('',(#68),#416,.F.);
#432=ADVANCED_FACE('',(#69),#49,.T.);
#433=ADVANCED_FACE('',(#70),#50,.T.);
#434=ADVANCED_FACE('',(#71,#21),#51,.T.);
#435=ADVANCED_FACE('',(#72),#52,.T.);
#436=ADVANCED_FACE('',(#73,#22),#53,.T.);
#437=ADVANCED_FACE('',(#74,#23,#24,#25),#54,.F.);
#438=ADVANCED_FACE('',(#75),#417,.F.);
#439=ADVANCED_FACE('',(#76),#418,.F.);
#440=ADVANCED_FACE('',(#77),#419,.T.);
#441=ADVANCED_FACE('',(#78,#26),#55,.T.);
#442=ADVANCED_FACE('',(#79),#56,.F.);
#443=CLOSED_SHELL('',(#420,#421,#422,#423,#424,#425,#426,#427,#428,#429,
#430,#431,#432,#433,#434,#435,#436,#437));
#444=CLOSED_SHELL('',(#438,#439,#440,#441,#442));
#445=DERIVED_UNIT_ELEMENT(#447,1.);
#446=DERIVED_UNIT_ELEMENT(#832,-3.);
#447=(
MASS_UNIT()
NAMED_UNIT(*)
SI_UNIT(.KILO.,.GRAM.)
);
#448=DERIVED_UNIT((#445,#446));
#449=MEASURE_REPRESENTATION_ITEM('density measure',
POSITIVE_RATIO_MEASURE(7850.),#448);
#450=PROPERTY_DEFINITION_REPRESENTATION(#455,#452);
#451=PROPERTY_DEFINITION_REPRESENTATION(#456,#453);
#452=REPRESENTATION('material name',(#454),#829);
#453=REPRESENTATION('density',(#449),#829);
#454=DESCRIPTIVE_REPRESENTATION_ITEM('Steel','Steel');
#455=PROPERTY_DEFINITION('material property','material name',#839);
#456=PROPERTY_DEFINITION('material property','density of part',#839);
#457=AXIS2_PLACEMENT_3D('',#634,#505,#506);
#458=AXIS2_PLACEMENT_3D('',#635,#507,#508);
#459=AXIS2_PLACEMENT_3D('',#681,#510,#511);
#460=AXIS2_PLACEMENT_3D('',#683,#512,#513);
#461=AXIS2_PLACEMENT_3D('',#685,#514,#515);
#462=AXIS2_PLACEMENT_3D('',#687,#516,#517);
#463=AXIS2_PLACEMENT_3D('',#688,#518,#519);
#464=AXIS2_PLACEMENT_3D('',#689,#520,#521);
#465=AXIS2_PLACEMENT_3D('',#691,#522,#523);
#466=AXIS2_PLACEMENT_3D('',#692,#524,#525);
#467=AXIS2_PLACEMENT_3D('',#694,#526,#527);
#468=AXIS2_PLACEMENT_3D('',#697,#529,#530);
#469=AXIS2_PLACEMENT_3D('',#698,#531,#532);
#470=AXIS2_PLACEMENT_3D('',#707,#537,#538);
#471=AXIS2_PLACEMENT_3D('',#715,#543,#544);
#472=AXIS2_PLACEMENT_3D('',#717,#545,#546);
#473=AXIS2_PLACEMENT_3D('',#719,#547,#548);
#474=AXIS2_PLACEMENT_3D('',#721,#550,#551);
#475=AXIS2_PLACEMENT_3D('',#726,#555,#556);
#476=AXIS2_PLACEMENT_3D('',#727,#557,#558);
#477=AXIS2_PLACEMENT_3D('',#734,#562,#563);
#478=AXIS2_PLACEMENT_3D('',#735,#564,#565);
#479=AXIS2_PLACEMENT_3D('',#738,#567,#568);
#480=AXIS2_PLACEMENT_3D('',#739,#569,#570);
#481=AXIS2_PLACEMENT_3D('',#741,#571,#572);
#482=AXIS2_PLACEMENT_3D('',#744,#574,#575);
#483=AXIS2_PLACEMENT_3D('',#745,#576,#577);
#484=AXIS2_PLACEMENT_3D('',#748,#579,#580);
#485=AXIS2_PLACEMENT_3D('',#749,#581,#582);
#486=AXIS2_PLACEMENT_3D('',#757,#587,#588);
#487=AXIS2_PLACEMENT_3D('',#761,#591,#592);
#488=AXIS2_PLACEMENT_3D('',#767,#596,#597);
#489=AXIS2_PLACEMENT_3D('',#770,#600,#601);
#490=AXIS2_PLACEMENT_3D('',#771,#602,#603);
#491=AXIS2_PLACEMENT_3D('',#772,#604,#605);
#492=AXIS2_PLACEMENT_3D('',#807,#606,#607);
#493=AXIS2_PLACEMENT_3D('',#809,#608,#609);
#494=AXIS2_PLACEMENT_3D('',#810,#610,#611);
#495=AXIS2_PLACEMENT_3D('',#811,#612,#613);
#496=AXIS2_PLACEMENT_3D('',#813,#614,#615);
#497=AXIS2_PLACEMENT_3D('',#816,#617,#618);
#498=AXIS2_PLACEMENT_3D('',#817,#619,#620);
#499=AXIS2_PLACEMENT_3D('',#818,#621,#622);
#500=AXIS2_PLACEMENT_3D('',#820,#623,#624);
#501=AXIS2_PLACEMENT_3D('',#823,#626,#627);
#502=AXIS2_PLACEMENT_3D('',#824,#628,#629);
#503=AXIS2_PLACEMENT_3D('',#825,#630,#631);
#504=AXIS2_PLACEMENT_3D('',#826,#632,#633);
#505=DIRECTION('axis',(0.,0.,1.));
#506=DIRECTION('refdir',(1.,0.,0.));
#507=DIRECTION('center_axis',(0.,0.707106781186547,-0.707106781186548));
#508=DIRECTION('ref_axis',(1.,0.,0.));
#509=DIRECTION('',(0.,0.707106781186547,-0.707106781186548));
#510=DIRECTION('center_axis',(0.,-0.707106781186547,0.707106781186548));
#511=DIRECTION('ref_axis',(0.,-0.707106781186548,-0.707106781186547));
#512=DIRECTION('center_axis',(0.,-0.923879532511286,0.382683432365092));
#513=DIRECTION('ref_axis',(0.,-0.382683432365092,-0.923879532511286));
#514=DIRECTION('center_axis',(0.,-0.707106781186547,0.707106781186548));
#515=DIRECTION('ref_axis',(0.,-0.707106781186548,-0.707106781186547));
#516=DIRECTION('center_axis',(0.,0.382683432365091,0.923879532511287));
#517=DIRECTION('ref_axis',(0.,-0.923879532511287,0.382683432365091));
#518=DIRECTION('center_axis',(0.,-0.707106781186547,0.707106781186548));
#519=DIRECTION('ref_axis',(0.,-0.707106781186548,-0.707106781186547));
#520=DIRECTION('center_axis',(0.,0.,-1.));
#521=DIRECTION('ref_axis',(1.,0.,0.));
#522=DIRECTION('center_axis',(0.,0.,-1.));
#523=DIRECTION('ref_axis',(1.,0.,0.));
#524=DIRECTION('center_axis',(0.,-1.,0.));
#525=DIRECTION('ref_axis',(-1.,0.,0.));
#526=DIRECTION('center_axis',(0.,1.,0.));
#527=DIRECTION('ref_axis',(-1.,0.,0.));
#528=DIRECTION('',(0.,1.,0.));
#529=DIRECTION('center_axis',(0.,-1.,0.));
#530=DIRECTION('ref_axis',(-1.,0.,0.));
#531=DIRECTION('center_axis',(0.,0.,-1.));
#532=DIRECTION('ref_axis',(1.,0.,0.));
#533=DIRECTION('',(1.,0.,0.));
#534=DIRECTION('',(0.,-1.,0.));
#535=DIRECTION('',(1.,0.,0.));
#536=DIRECTION('',(0.,-1.,0.));
#537=DIRECTION('center_axis',(-1.,0.,0.));
#538=DIRECTION('ref_axis',(0.,0.,-1.));
#539=DIRECTION('',(0.,0.,-1.));
#540=DIRECTION('',(0.,1.,0.));
#541=DIRECTION('',(0.,0.,-1.));
#542=DIRECTION('',(0.,-1.,0.));
#543=DIRECTION('center_axis',(0.,-1.,0.));
#544=DIRECTION('ref_axis',(-1.,0.,0.));
#545=DIRECTION('center_axis',(0.,1.,0.));
#546=DIRECTION('ref_axis',(-1.,0.,0.));
#547=DIRECTION('center_axis',(0.,-1.,0.));
#548=DIRECTION('ref_axis',(-1.,0.,0.));
#549=DIRECTION('',(0.,-1.,0.));
#550=DIRECTION('center_axis',(1.,0.,0.));
#551=DIRECTION('ref_axis',(0.,0.,1.));
#552=DIRECTION('',(0.,0.,-1.));
#553=DIRECTION('',(0.,0.,1.));
#554=DIRECTION('',(0.,-1.,0.));
#555=DIRECTION('center_axis',(0.,1.,0.));
#556=DIRECTION('ref_axis',(-1.,0.,0.));
#557=DIRECTION('center_axis',(0.,0.,1.));
#558=DIRECTION('ref_axis',(1.,0.,0.));
#559=DIRECTION('',(-1.,0.,0.));
#560=DIRECTION('',(0.108447510175417,-0.994102176607995,0.));
#561=DIRECTION('',(1.,0.,0.));
#562=DIRECTION('center_axis',(0.,0.,-1.));
#563=DIRECTION('ref_axis',(1.,0.,0.));
#564=DIRECTION('center_axis',(0.,0.,1.));
#565=DIRECTION('ref_axis',(1.,0.,0.));
#566=DIRECTION('',(0.,0.,-1.));
#567=DIRECTION('center_axis',(0.,0.,-1.));
#568=DIRECTION('ref_axis',(1.,0.,0.));
#569=DIRECTION('center_axis',(0.,0.,1.));
#570=DIRECTION('ref_axis',(1.,0.,0.));
#571=DIRECTION('center_axis',(0.,0.,-1.));
#572=DIRECTION('ref_axis',(1.,0.,0.));
#573=DIRECTION('',(0.,0.,-1.));
#574=DIRECTION('center_axis',(0.,0.,-1.));
#575=DIRECTION('ref_axis',(1.,0.,0.));
#576=DIRECTION('center_axis',(0.,0.,1.));
#577=DIRECTION('ref_axis',(1.,0.,0.));
#578=DIRECTION('',(0.,0.,-1.));
#579=DIRECTION('center_axis',(0.,0.,-1.));
#580=DIRECTION('ref_axis',(1.,0.,0.));
#581=DIRECTION('center_axis',(0.,-1.,0.));
#582=DIRECTION('ref_axis',(1.,0.,0.));
#583=DIRECTION('',(-1.,0.,0.));
#584=DIRECTION('',(0.,0.,1.));
#585=DIRECTION('',(1.,0.,0.));
#586=DIRECTION('',(0.,0.,1.));
#587=DIRECTION('center_axis',(-0.994102176607995,-0.108447510175417,0.));
#588=DIRECTION('ref_axis',(0.108447510175417,-0.994102176607995,0.));
#589=DIRECTION('',(0.108447510175417,-0.994102176607995,0.));
#590=DIRECTION('',(0.,0.,1.));
#591=DIRECTION('center_axis',(0.,1.,0.));
#592=DIRECTION('ref_axis',(-1.,0.,0.));
#593=DIRECTION('',(-1.,0.,0.));
#594=DIRECTION('',(-1.,0.,0.));
#595=DIRECTION('',(0.,0.,1.));
#596=DIRECTION('center_axis',(0.994102176607995,-0.108447510175418,0.));
#597=DIRECTION('ref_axis',(0.108447510175418,0.994102176607995,0.));
#598=DIRECTION('',(-0.108447510175418,-0.994102176607995,0.));
#599=DIRECTION('',(0.108447510175418,0.994102176607995,0.));
#600=DIRECTION('center_axis',(0.,0.,1.));
#601=DIRECTION('ref_axis',(1.,0.,0.));
#602=DIRECTION('center_axis',(0.,0.,1.));
#603=DIRECTION('ref_axis',(1.,0.,0.));
#604=DIRECTION('center_axis',(0.,-1.,0.));
#605=DIRECTION('ref_axis',(1.83697019872103E-16,0.,1.));
#606=DIRECTION('center_axis',(0.,-0.707106781186547,0.707106781186548));
#607=DIRECTION('ref_axis',(0.,-0.707106781186548,-0.707106781186547));
#608=DIRECTION('center_axis',(0.,-0.38268343236509,-0.923879532511287));
#609=DIRECTION('ref_axis',(0.,0.923879532511287,-0.38268343236509));
#610=DIRECTION('center_axis',(0.,-0.707106781186547,0.707106781186548));
#611=DIRECTION('ref_axis',(0.,-0.707106781186548,-0.707106781186547));
#612=DIRECTION('center_axis',(0.,-0.707106781186547,0.707106781186548));
#613=DIRECTION('ref_axis',(1.,0.,0.));
#614=DIRECTION('center_axis',(0.,0.707106781186547,-0.707106781186548));
#615=DIRECTION('ref_axis',(1.,0.,0.));
#616=DIRECTION('',(0.,0.707106781186547,-0.707106781186548));
#617=DIRECTION('center_axis',(0.,0.707106781186547,-0.707106781186548));
#618=DIRECTION('ref_axis',(1.,0.,0.));
#619=DIRECTION('center_axis',(0.,0.707106781186547,-0.707106781186548));
#620=DIRECTION('ref_axis',(1.,0.,0.));
#621=DIRECTION('center_axis',(0.,-0.707106781186547,0.707106781186548));
#622=DIRECTION('ref_axis',(1.,0.,0.));
#623=DIRECTION('center_axis',(0.,-0.707106781186547,0.707106781186548));
#624=DIRECTION('ref_axis',(1.,0.,0.));
#625=DIRECTION('',(0.,0.707106781186547,-0.707106781186548));
#626=DIRECTION('center_axis',(0.,-0.707106781186547,0.707106781186548));
#627=DIRECTION('ref_axis',(1.,0.,0.));
#628=DIRECTION('center_axis',(0.,-0.707106781186547,0.707106781186548));
#629=DIRECTION('ref_axis',(1.,0.,0.));
#630=DIRECTION('center_axis',(0.,-0.707106781186547,0.707106781186548));
#631=DIRECTION('ref_axis',(1.,0.,0.));
#632=DIRECTION('center_axis',(0.,-0.707106781186547,0.707106781186548));
#633=DIRECTION('ref_axis',(1.,0.,0.));
#634=CARTESIAN_POINT('',(0.,0.,0.));
#635=CARTESIAN_POINT('Origin',(0.,-74.3198056275467,10.6801943724533));
#636=CARTESIAN_POINT('',(2.25,-76.4951625305573,12.855551275464));
#637=CARTESIAN_POINT('',(-2.25,-76.4951625305573,12.855551275464));
#638=CARTESIAN_POINT('Ctrl Pts',(2.25,-76.4951625305573,12.855551275464));
#639=CARTESIAN_POINT('Ctrl Pts',(2.25,-76.9795777810981,12.855551275464));
#640=CARTESIAN_POINT('Ctrl Pts',(2.17211352838135,-77.4970350293872,12.9065389729745));
#641=CARTESIAN_POINT('Ctrl Pts',(1.8896175639145,-78.4884037707767,13.0602100206558));
#642=CARTESIAN_POINT('Ctrl Pts',(1.68550333307094,-78.9626850523597,13.1614140431464));
#643=CARTESIAN_POINT('Ctrl Pts',(1.26256257296912,-79.6013579971151,13.3117044616741));
#644=CARTESIAN_POINT('Ctrl Pts',(1.05766511297531,-79.8455558677129,13.3736368892075));
#645=CARTESIAN_POINT('Ctrl Pts',(0.695470526005731,-80.1158272770003,13.4445149034684));
#646=CARTESIAN_POINT('Ctrl Pts',(0.565626032723106,-80.190161945174,13.4644422505712));
#647=CARTESIAN_POINT('Ctrl Pts',(0.291934978561013,-80.2930241586117,13.4921876446513));
#648=CARTESIAN_POINT('Ctrl Pts',(0.148102900727555,-80.3215917704328,13.5));
#649=CARTESIAN_POINT('Ctrl Pts',(-0.148102900727555,-80.3215917704328,13.5));
#650=CARTESIAN_POINT('Ctrl Pts',(-0.291934978561014,-80.2930241586117,13.4921876446513));
#651=CARTESIAN_POINT('Ctrl Pts',(-0.565626032723108,-80.190161945174,13.4644422505712));
#652=CARTESIAN_POINT('Ctrl Pts',(-0.695470526005733,-80.1158272770003,13.4445149034684));
#653=CARTESIAN_POINT('Ctrl Pts',(-1.05766511297531,-79.8455558677129,13.3736368892075));
#654=CARTESIAN_POINT('Ctrl Pts',(-1.26256257296912,-79.6013579971151,13.3117044616741));
#655=CARTESIAN_POINT('Ctrl Pts',(-1.68550333307094,-78.9626850523597,13.1614140431464));
#656=CARTESIAN_POINT('Ctrl Pts',(-1.8896175639145,-78.4884037707768,13.0602100206558));
#657=CARTESIAN_POINT('Ctrl Pts',(-2.17211352838134,-77.4970350293872,12.9065389729745));
#658=CARTESIAN_POINT('Ctrl Pts',(-2.25,-76.9795777810981,12.855551275464));
#659=CARTESIAN_POINT('Ctrl Pts',(-2.25,-76.4951625305573,12.855551275464));
#660=CARTESIAN_POINT('Ctrl Pts',(-2.25,-76.4951625305573,12.855551275464));
#661=CARTESIAN_POINT('Ctrl Pts',(-2.25,-76.1563425816942,12.855551275464));
#662=CARTESIAN_POINT('Ctrl Pts',(-2.2098930600966,-75.7883683212517,12.8823484348014));
#663=CARTESIAN_POINT('Ctrl Pts',(-1.99646656643388,-75.1158825235586,13.0038913861402));
#664=CARTESIAN_POINT('Ctrl Pts',(-1.82025232749138,-74.8122531924809,13.098416408908));
#665=CARTESIAN_POINT('Ctrl Pts',(-1.37668591584219,-74.3640256125379,13.2774864641325));
#666=CARTESIAN_POINT('Ctrl Pts',(-1.06190478099288,-74.1753240917134,13.3762187210039));
#667=CARTESIAN_POINT('Ctrl Pts',(-0.535592855751518,-74.0024093698361,13.472588444079));
#668=CARTESIAN_POINT('Ctrl Pts',(-0.245594171647587,-73.9576307397539,13.5));
#669=CARTESIAN_POINT('Ctrl Pts',(0.245594171647586,-73.9576307397539,13.5));
#670=CARTESIAN_POINT('Ctrl Pts',(0.535592855751518,-74.0024093698361,13.472588444079));
#671=CARTESIAN_POINT('Ctrl Pts',(1.06190478099288,-74.1753240917134,13.3762187210039));
#672=CARTESIAN_POINT('Ctrl Pts',(1.37668591584219,-74.3640256125379,13.2774864641325));
#673=CARTESIAN_POINT('Ctrl Pts',(1.82025232749138,-74.8122531924809,13.098416408908));
#674=CARTESIAN_POINT('Ctrl Pts',(1.99646656643388,-75.1158825235586,13.0038913861402));
#675=CARTESIAN_POINT('Ctrl Pts',(2.2098930600966,-75.7883683212517,12.8823484348014));
#676=CARTESIAN_POINT('Ctrl Pts',(2.25,-76.1563425816942,12.855551275464));
#677=CARTESIAN_POINT('Ctrl Pts',(2.25,-76.4951625305573,12.855551275464));
#678=CARTESIAN_POINT('',(-2.24994324820663,-72.9055922667106,9.26598060854317));
#679=CARTESIAN_POINT('',(-2.25,-74.3198056275467,10.6801943724533));
#680=CARTESIAN_POINT('',(-2.24933834698797,-72.8670109767402,9.30456189851363));
#681=CARTESIAN_POINT('Origin',(0.,-72.9215728752538,9.25));
#682=CARTESIAN_POINT('',(2.24933834698797,-72.8670109767402,9.30456189851363));
#683=CARTESIAN_POINT('Origin',(0.,-72.8896112550934,9.25));
#684=CARTESIAN_POINT('',(2.2499805255334,-72.9122115334465,9.25936134180727));
#685=CARTESIAN_POINT('Origin',(0.,-72.9215728752538,9.25));
#686=CARTESIAN_POINT('',(-2.2499805255334,-72.9122115334465,9.25936134180727));
#687=CARTESIAN_POINT('Origin',(0.,-72.8896112550933,9.25));
#688=CARTESIAN_POINT('Origin',(0.,-72.9215728752538,9.25));
#689=CARTESIAN_POINT('Origin',(-4.25,-62.000000923872,5.));
#690=CARTESIAN_POINT('',(-1.5,-75.0000011175871,5.));
#691=CARTESIAN_POINT('Origin',(0.,-75.0000011175871,5.));
#692=CARTESIAN_POINT('Origin',(0.,-62.000000923872,9.25));
#693=CARTESIAN_POINT('',(2.25,-97.000000923872,9.25));
#694=CARTESIAN_POINT('Origin',(0.,-97.000000923872,9.25));
#695=CARTESIAN_POINT('',(2.25,-62.000000923872,9.25));
#696=CARTESIAN_POINT('',(2.25,-62.000000923872,9.25));
#697=CARTESIAN_POINT('Origin',(0.,-62.000000923872,9.25));
#698=CARTESIAN_POINT('Origin',(-4.25,-62.000000923872,5.));
#699=CARTESIAN_POINT('',(-4.25,-80.,5.));
#700=CARTESIAN_POINT('',(4.25,-80.,5.));
#701=CARTESIAN_POINT('',(18.,-80.,5.));
#702=CARTESIAN_POINT('',(4.25,-97.000000923872,5.));
#703=CARTESIAN_POINT('',(4.25,-62.000000923872,5.));
#704=CARTESIAN_POINT('',(-4.25,-97.000000923872,5.));
#705=CARTESIAN_POINT('',(-19.9636362628503,-97.000000923872,5.));
#706=CARTESIAN_POINT('',(-4.25,-62.000000923872,5.));
#707=CARTESIAN_POINT('Origin',(-4.25,-62.000000923872,9.25));
#708=CARTESIAN_POINT('',(-4.25,-62.000000923872,9.25));
#709=CARTESIAN_POINT('',(-4.25,-62.000000923872,5.));
#710=CARTESIAN_POINT('',(-4.25,-62.000000923872,9.25));
#711=CARTESIAN_POINT('',(-4.25,-66.500000692904,5.));
#712=CARTESIAN_POINT('',(-4.25,-97.000000923872,9.25));
#713=CARTESIAN_POINT('',(-4.25,-97.000000923872,9.25));
#714=CARTESIAN_POINT('',(-4.25,-62.000000923872,9.25));
#715=CARTESIAN_POINT('Origin',(0.,-62.000000923872,9.25));
#716=CARTESIAN_POINT('',(4.25,-62.000000923872,9.25));
#717=CARTESIAN_POINT('Origin',(0.,-62.000000923872,9.25));
#718=CARTESIAN_POINT('',(4.25,-97.000000923872,9.25));
#719=CARTESIAN_POINT('Origin',(0.,-97.000000923872,9.25));
#720=CARTESIAN_POINT('',(4.25,-62.000000923872,9.25));
#721=CARTESIAN_POINT('Origin',(4.25,-62.000000923872,5.00000007450581));
#722=CARTESIAN_POINT('',(4.25,-62.000000923872,5.));
#723=CARTESIAN_POINT('',(4.25,-62.000000923872,9.25));
#724=CARTESIAN_POINT('',(4.25,-97.000000923872,9.25));
#725=CARTESIAN_POINT('',(4.25,-66.500000692904,5.));
#726=CARTESIAN_POINT('Origin',(0.,-97.000000923872,9.25));
#727=CARTESIAN_POINT('Origin',(0.,-71.000000461936,5.));
#728=CARTESIAN_POINT('',(-19.9636362628503,-62.000000923872,5.));
#729=CARTESIAN_POINT('',(19.9636362628503,-62.000000923872,5.));
#730=CARTESIAN_POINT('',(-18.,-80.,5.));
#731=CARTESIAN_POINT('',(-24.,-25.,5.));
#732=CARTESIAN_POINT('',(18.,-80.,5.));
#733=CARTESIAN_POINT('',(-15.,-65.,5.));
#734=CARTESIAN_POINT('Origin',(-13.5,-65.,5.));
#735=CARTESIAN_POINT('Origin',(0.,-75.0000011175871,0.));
#736=CARTESIAN_POINT('',(-1.5,-75.0000011175871,0.));
#737=CARTESIAN_POINT('',(-1.5,-75.0000011175871,0.));
#738=CARTESIAN_POINT('Origin',(0.,-75.0000011175871,0.));
#739=CARTESIAN_POINT('Origin',(13.5,-65.,0.));
#740=CARTESIAN_POINT('',(12.,-65.,5.));
#741=CARTESIAN_POINT('Origin',(13.5,-65.,5.));
#742=CARTESIAN_POINT('',(12.,-65.,0.));
#743=CARTESIAN_POINT('',(12.,-65.,0.));
#744=CARTESIAN_POINT('Origin',(13.5,-65.,0.));
#745=CARTESIAN_POINT('Origin',(-13.5,-65.,0.));
#746=CARTESIAN_POINT('',(-15.,-65.,0.));
#747=CARTESIAN_POINT('',(-15.,-65.,0.));
#748=CARTESIAN_POINT('Origin',(-13.5,-65.,0.));
#749=CARTESIAN_POINT('Origin',(-18.,-80.,0.));
#750=CARTESIAN_POINT('',(18.,-80.,0.));
#751=CARTESIAN_POINT('',(-18.,-80.,0.));
#752=CARTESIAN_POINT('',(18.,-80.,0.));
#753=CARTESIAN_POINT('',(18.,-80.,5.));
#754=CARTESIAN_POINT('',(18.,-80.,0.));
#755=CARTESIAN_POINT('',(18.,-80.,5.));
#756=CARTESIAN_POINT('',(-18.,-80.,0.));
#757=CARTESIAN_POINT('Origin',(-19.9636362628503,-62.000000923872,0.));
#758=CARTESIAN_POINT('',(-19.9636362628503,-62.000000923872,0.));
#759=CARTESIAN_POINT('',(-24.,-25.,0.));
#760=CARTESIAN_POINT('',(-19.9636362628503,-62.000000923872,0.));
#761=CARTESIAN_POINT('Origin',(19.9636362628503,-62.000000923872,0.));
#762=CARTESIAN_POINT('',(19.9636362628503,-62.000000923872,0.));
#763=CARTESIAN_POINT('',(19.9636362628503,-62.000000923872,0.));
#764=CARTESIAN_POINT('',(19.9636362628503,-62.000000923872,5.));
#765=CARTESIAN_POINT('',(19.9636362628503,-62.000000923872,5.));
#766=CARTESIAN_POINT('',(19.9636362628503,-62.000000923872,0.));
#767=CARTESIAN_POINT('Origin',(18.,-80.,0.));
#768=CARTESIAN_POINT('',(24.,-25.,0.));
#769=CARTESIAN_POINT('',(24.,-25.,5.));
#770=CARTESIAN_POINT('Origin',(0.,-71.000000461936,5.));
#771=CARTESIAN_POINT('Origin',(0.,-71.000000461936,0.));
#772=CARTESIAN_POINT('Origin',(0.,-62.000000923872,9.25));
#773=CARTESIAN_POINT('',(-1.85475601369041,-77.0237268661998,7.97627313380016));
#774=CARTESIAN_POINT('',(1.85475601369041,-77.0237268661998,7.97627313380016));
#775=CARTESIAN_POINT('Ctrl Pts',(-1.85475601369041,-77.0237268661998,7.97627313380016));
#776=CARTESIAN_POINT('Ctrl Pts',(-1.93896261072967,-77.0885839807527,8.09889180220977));
#777=CARTESIAN_POINT('Ctrl Pts',(-2.00912396764195,-77.1641730239663,8.22739101573881));
#778=CARTESIAN_POINT('Ctrl Pts',(-2.19950566034666,-77.4545281767707,8.66742139415341));
#779=CARTESIAN_POINT('Ctrl Pts',(-2.25,-77.7205002489997,8.98186948031357));
#780=CARTESIAN_POINT('Ctrl Pts',(-2.25,-78.3016021768071,9.56297140812094));
#781=CARTESIAN_POINT('Ctrl Pts',(-2.18423591506131,-78.6677053152123,9.86854636090793));
#782=CARTESIAN_POINT('Ctrl Pts',(-1.94419054754997,-79.4097948443659,10.4220107989758));
#783=CARTESIAN_POINT('Ctrl Pts',(-1.76988796485348,-79.7849320715177,10.6710287103218));
#784=CARTESIAN_POINT('Ctrl Pts',(-1.35944487473517,-80.4047708681451,11.0628842794022));
#785=CARTESIAN_POINT('Ctrl Pts',(-1.07233828364191,-80.7323768205708,11.2579938542682));
#786=CARTESIAN_POINT('Ctrl Pts',(-0.642236521839374,-80.9920892796332,11.4092122890256));
#787=CARTESIAN_POINT('Ctrl Pts',(-0.520435469254319,-81.0504732036108,11.4428855734993));
#788=CARTESIAN_POINT('Ctrl Pts',(-0.262892544172557,-81.1297081889653,11.488411891508));
#789=CARTESIAN_POINT('Ctrl Pts',(-0.126937991615914,-81.150018895179,11.5));
#790=CARTESIAN_POINT('Ctrl Pts',(0.126937991615914,-81.150018895179,11.5));
#791=CARTESIAN_POINT('Ctrl Pts',(0.262892544172557,-81.1297081889653,11.488411891508));
#792=CARTESIAN_POINT('Ctrl Pts',(0.520435469254318,-81.0504732036108,11.4428855734993));
#793=CARTESIAN_POINT('Ctrl Pts',(0.642236521839371,-80.9920892796332,11.4092122890256));
#794=CARTESIAN_POINT('Ctrl Pts',(1.07233828364191,-80.7323768205708,11.2579938542682));
#795=CARTESIAN_POINT('Ctrl Pts',(1.35944487473517,-80.4047708681451,11.0628842794022));
#796=CARTESIAN_POINT('Ctrl Pts',(1.76988796485348,-79.7849320715177,10.6710287103218));
#797=CARTESIAN_POINT('Ctrl Pts',(1.94419054754997,-79.409794844366,10.4220107989758));
#798=CARTESIAN_POINT('Ctrl Pts',(2.18423591506131,-78.6677053152123,9.86854636090793));
#799=CARTESIAN_POINT('Ctrl Pts',(2.25,-78.3016021768071,9.56297140812094));
#800=CARTESIAN_POINT('Ctrl Pts',(2.25,-77.9886307686861,9.25));
#801=CARTESIAN_POINT('Ctrl Pts',(2.25,-77.7205002489997,8.98186948031357));
#802=CARTESIAN_POINT('Ctrl Pts',(2.19950566034666,-77.4545281767707,8.66742139415341));
#803=CARTESIAN_POINT('Ctrl Pts',(2.00912396764195,-77.1641730239663,8.2273910157388));
#804=CARTESIAN_POINT('Ctrl Pts',(1.93896261072967,-77.0885839807527,8.09889180220977));
#805=CARTESIAN_POINT('Ctrl Pts',(1.85475601369041,-77.0237268661998,7.97627313380016));
#806=CARTESIAN_POINT('',(-2.08820748138453,-74.9122115334464,10.0877884665536));
#807=CARTESIAN_POINT('Origin',(0.,-75.75,9.25));
#808=CARTESIAN_POINT('',(2.08820748138453,-74.9122115334464,10.0877884665536));
#809=CARTESIAN_POINT('Origin',(0.,-72.8896112550933,9.25));
#810=CARTESIAN_POINT('Origin',(0.,-75.75,9.25));
#811=CARTESIAN_POINT('Origin',(0.,-74.3198056275467,10.6801943724533));
#812=CARTESIAN_POINT('',(-2.25,-99.0685429690758,35.4289317139825));
#813=CARTESIAN_POINT('Origin',(0.,-99.0685429690758,35.4289317139825));
#814=CARTESIAN_POINT('',(-2.25,-74.3198056275466,10.6801943724533));
#815=CARTESIAN_POINT('',(-2.25,-74.3198056275467,10.6801943724533));
#816=CARTESIAN_POINT('Origin',(0.,-74.3198056275467,10.6801943724533));
#817=CARTESIAN_POINT('Origin',(0.,-74.3198056275467,10.6801943724533));
#818=CARTESIAN_POINT('Origin',(0.,-74.3198056275467,10.6801943724533));
#819=CARTESIAN_POINT('',(-4.25,-99.0685429690758,35.4289317139825));
#820=CARTESIAN_POINT('Origin',(0.,-99.0685429690758,35.4289317139825));
#821=CARTESIAN_POINT('',(-4.25,-74.3198056275467,10.6801943724533));
#822=CARTESIAN_POINT('',(-4.25,-74.3198056275467,10.6801943724533));
#823=CARTESIAN_POINT('Origin',(0.,-74.3198056275467,10.6801943724533));
#824=CARTESIAN_POINT('Origin',(0.,-74.3198056275467,10.6801943724533));
#825=CARTESIAN_POINT('Origin',(0.,-99.0685429690758,35.4289317139825));
#826=CARTESIAN_POINT('Origin',(0.,-74.3198056275467,10.6801943724533));
#827=UNCERTAINTY_MEASURE_WITH_UNIT(LENGTH_MEASURE(0.01),#831,
'DISTANCE_ACCURACY_VALUE',
'Maximum model space distance between geometric entities at asserted c
onnectivities');
#828=UNCERTAINTY_MEASURE_WITH_UNIT(LENGTH_MEASURE(0.01),#831,
'DISTANCE_ACCURACY_VALUE',
'Maximum model space distance between geometric entities at asserted c
onnectivities');
#829=(
GEOMETRIC_REPRESENTATION_CONTEXT(3)
GLOBAL_UNCERTAINTY_ASSIGNED_CONTEXT((#827))
GLOBAL_UNIT_ASSIGNED_CONTEXT((#831,#833,#834))
REPRESENTATION_CONTEXT('','3D')
);
#830=(
GEOMETRIC_REPRESENTATION_CONTEXT(3)
GLOBAL_UNCERTAINTY_ASSIGNED_CONTEXT((#828))
GLOBAL_UNIT_ASSIGNED_CONTEXT((#831,#833,#834))
REPRESENTATION_CONTEXT('','3D')
);
#831=(
LENGTH_UNIT()
NAMED_UNIT(*)
SI_UNIT(.MILLI.,.METRE.)
);
#832=(
LENGTH_UNIT()
NAMED_UNIT(*)
SI_UNIT($,.METRE.)
);
#833=(
NAMED_UNIT(*)
PLANE_ANGLE_UNIT()
SI_UNIT($,.RADIAN.)
);
#834=(
NAMED_UNIT(*)
SI_UNIT($,.STERADIAN.)
SOLID_ANGLE_UNIT()
);
#835=SHAPE_DEFINITION_REPRESENTATION(#836,#837);
#836=PRODUCT_DEFINITION_SHAPE('',$,#839);
#837=SHAPE_REPRESENTATION('',(#457),#829);
#838=PRODUCT_DEFINITION_CONTEXT('part definition',#843,'design');
#839=PRODUCT_DEFINITION('Antenna Mount','Antenna Mount v2',#840,#838);
#840=PRODUCT_DEFINITION_FORMATION('',$,#845);
#841=PRODUCT_RELATED_PRODUCT_CATEGORY('Antenna Mount v2',
'Antenna Mount v2',(#845));
#842=APPLICATION_PROTOCOL_DEFINITION('international standard',
'automotive_design',2009,#843);
#843=APPLICATION_CONTEXT(
'Core Data for Automotive Mechanical Design Process');
#844=PRODUCT_CONTEXT('part definition',#843,'mechanical');
#845=PRODUCT('Antenna Mount','Antenna Mount v2',$,(#844));
#846=PRESENTATION_STYLE_ASSIGNMENT((#847));
#847=SURFACE_STYLE_USAGE(.BOTH.,#848);
#848=SURFACE_SIDE_STYLE('',(#849));
#849=SURFACE_STYLE_FILL_AREA(#850);
#850=FILL_AREA_STYLE('Steel - Satin',(#851));
#851=FILL_AREA_STYLE_COLOUR('Steel - Satin',#852);
#852=COLOUR_RGB('Steel - Satin',0.627450980392157,0.627450980392157,0.627450980392157);
ENDSEC;
END-ISO-10303-21;
