ISO-10303-21;
HEADER;
/* Generated by software containing ST-Developer
 * from STEP Tools, Inc. (www.steptools.com) 
 */

FILE_DESCRIPTION(
/* description */ (''),
/* implementation_level */ '2;1');

FILE_NAME(
/* name */ 'Camera Mount-Gaurd.step',
/* time_stamp */ '2026-08-07T16:01:12-06:00',
/* author */ (''),
/* organization */ (''),
/* preprocessor_version */ 'ST-DEVELOPER v20.1',
/* originating_system */ 'Autodesk Translation Framework v15.8.0.0',
/* authorisation */ '');

FILE_SCHEMA (('AUTOMOTIVE_DESIGN { 1 0 10303 214 3 1 1 }'));
ENDSEC;

DATA;
#10=MECHANICAL_DESIGN_GEOMETRIC_PRESENTATION_REPRESENTATION('',(#13),#1566);
#11=SHAPE_REPRESENTATION_RELATIONSHIP('SRR','None',#1573,#12);
#12=ADVANCED_BREP_SHAPE_REPRESENTATION('',(#14),#1565);
#13=STYLED_ITEM('',(#1582),#14);
#14=MANIFOLD_SOLID_BREP('Body1',#920);
#15=FACE_BOUND('',#113,.T.);
#16=FACE_BOUND('',#121,.T.);
#17=FACE_BOUND('',#138,.T.);
#18=FACE_BOUND('',#139,.T.);
#19=FACE_BOUND('',#143,.T.);
#20=FACE_BOUND('',#144,.T.);
#21=FACE_BOUND('',#147,.T.);
#22=FACE_BOUND('',#148,.T.);
#23=FACE_BOUND('',#149,.T.);
#24=FACE_BOUND('',#150,.T.);
#25=FACE_BOUND('',#152,.T.);
#26=FACE_BOUND('',#153,.T.);
#27=FACE_BOUND('',#156,.T.);
#28=FACE_BOUND('',#157,.T.);
#29=FACE_BOUND('',#161,.T.);
#30=FACE_BOUND('',#162,.T.);
#31=FACE_BOUND('',#168,.T.);
#32=FACE_BOUND('',#169,.T.);
#33=FACE_BOUND('',#171,.T.);
#34=FACE_BOUND('',#175,.T.);
#35=FACE_BOUND('',#176,.T.);
#36=PLANE('',#946);
#37=PLANE('',#967);
#38=PLANE('',#979);
#39=PLANE('',#983);
#40=PLANE('',#998);
#41=PLANE('',#1005);
#42=PLANE('',#1006);
#43=PLANE('',#1007);
#44=PLANE('',#1008);
#45=PLANE('',#1009);
#46=PLANE('',#1010);
#47=PLANE('',#1011);
#48=PLANE('',#1014);
#49=PLANE('',#1015);
#50=PLANE('',#1016);
#51=PLANE('',#1017);
#52=PLANE('',#1018);
#53=PLANE('',#1023);
#54=PLANE('',#1024);
#55=PLANE('',#1025);
#56=PLANE('',#1026);
#57=PLANE('',#1027);
#58=PLANE('',#1028);
#59=PLANE('',#1029);
#60=FACE_OUTER_BOUND('',#108,.T.);
#61=FACE_OUTER_BOUND('',#109,.T.);
#62=FACE_OUTER_BOUND('',#110,.T.);
#63=FACE_OUTER_BOUND('',#111,.T.);
#64=FACE_OUTER_BOUND('',#112,.T.);
#65=FACE_OUTER_BOUND('',#114,.T.);
#66=FACE_OUTER_BOUND('',#115,.T.);
#67=FACE_OUTER_BOUND('',#116,.T.);
#68=FACE_OUTER_BOUND('',#117,.T.);
#69=FACE_OUTER_BOUND('',#118,.T.);
#70=FACE_OUTER_BOUND('',#119,.T.);
#71=FACE_OUTER_BOUND('',#120,.T.);
#72=FACE_OUTER_BOUND('',#122,.T.);
#73=FACE_OUTER_BOUND('',#123,.T.);
#74=FACE_OUTER_BOUND('',#124,.T.);
#75=FACE_OUTER_BOUND('',#125,.T.);
#76=FACE_OUTER_BOUND('',#126,.T.);
#77=FACE_OUTER_BOUND('',#127,.T.);
#78=FACE_OUTER_BOUND('',#128,.T.);
#79=FACE_OUTER_BOUND('',#129,.T.);
#80=FACE_OUTER_BOUND('',#130,.T.);
#81=FACE_OUTER_BOUND('',#131,.T.);
#82=FACE_OUTER_BOUND('',#132,.T.);
#83=FACE_OUTER_BOUND('',#133,.T.);
#84=FACE_OUTER_BOUND('',#134,.T.);
#85=FACE_OUTER_BOUND('',#135,.T.);
#86=FACE_OUTER_BOUND('',#136,.T.);
#87=FACE_OUTER_BOUND('',#137,.T.);
#88=FACE_OUTER_BOUND('',#140,.T.);
#89=FACE_OUTER_BOUND('',#141,.T.);
#90=FACE_OUTER_BOUND('',#142,.T.);
#91=FACE_OUTER_BOUND('',#145,.T.);
#92=FACE_OUTER_BOUND('',#146,.T.);
#93=FACE_OUTER_BOUND('',#151,.T.);
#94=FACE_OUTER_BOUND('',#154,.T.);
#95=FACE_OUTER_BOUND('',#155,.T.);
#96=FACE_OUTER_BOUND('',#158,.T.);
#97=FACE_OUTER_BOUND('',#159,.T.);
#98=FACE_OUTER_BOUND('',#160,.T.);
#99=FACE_OUTER_BOUND('',#163,.T.);
#100=FACE_OUTER_BOUND('',#164,.T.);
#101=FACE_OUTER_BOUND('',#165,.T.);
#102=FACE_OUTER_BOUND('',#166,.T.);
#103=FACE_OUTER_BOUND('',#167,.T.);
#104=FACE_OUTER_BOUND('',#170,.T.);
#105=FACE_OUTER_BOUND('',#172,.T.);
#106=FACE_OUTER_BOUND('',#173,.T.);
#107=FACE_OUTER_BOUND('',#174,.T.);
#108=EDGE_LOOP('',(#594,#595,#596,#597));
#109=EDGE_LOOP('',(#598,#599,#600,#601));
#110=EDGE_LOOP('',(#602,#603,#604,#605));
#111=EDGE_LOOP('',(#606,#607,#608,#609));
#112=EDGE_LOOP('',(#610,#611,#612,#613));
#113=EDGE_LOOP('',(#614,#615,#616,#617));
#114=EDGE_LOOP('',(#618,#619,#620,#621));
#115=EDGE_LOOP('',(#622,#623,#624,#625));
#116=EDGE_LOOP('',(#626,#627,#628,#629));
#117=EDGE_LOOP('',(#630,#631,#632,#633));
#118=EDGE_LOOP('',(#634,#635,#636,#637));
#119=EDGE_LOOP('',(#638,#639,#640,#641));
#120=EDGE_LOOP('',(#642,#643,#644,#645));
#121=EDGE_LOOP('',(#646,#647,#648,#649));
#122=EDGE_LOOP('',(#650,#651,#652,#653));
#123=EDGE_LOOP('',(#654,#655,#656,#657));
#124=EDGE_LOOP('',(#658,#659,#660,#661));
#125=EDGE_LOOP('',(#662));
#126=EDGE_LOOP('',(#663,#664,#665,#666));
#127=EDGE_LOOP('',(#667));
#128=EDGE_LOOP('',(#668,#669,#670,#671));
#129=EDGE_LOOP('',(#672,#673,#674,#675));
#130=EDGE_LOOP('',(#676,#677,#678,#679));
#131=EDGE_LOOP('',(#680,#681,#682,#683));
#132=EDGE_LOOP('',(#684,#685,#686,#687));
#133=EDGE_LOOP('',(#688,#689,#690,#691));
#134=EDGE_LOOP('',(#692,#693,#694,#695));
#135=EDGE_LOOP('',(#696,#697,#698,#699));
#136=EDGE_LOOP('',(#700,#701,#702,#703));
#137=EDGE_LOOP('',(#704,#705,#706,#707,#708,#709));
#138=EDGE_LOOP('',(#710));
#139=EDGE_LOOP('',(#711));
#140=EDGE_LOOP('',(#712,#713,#714,#715));
#141=EDGE_LOOP('',(#716,#717,#718,#719));
#142=EDGE_LOOP('',(#720,#721,#722,#723,#724));
#143=EDGE_LOOP('',(#725));
#144=EDGE_LOOP('',(#726,#727,#728,#729));
#145=EDGE_LOOP('',(#730,#731,#732,#733));
#146=EDGE_LOOP('',(#734,#735,#736,#737,#738,#739,#740,#741,#742,#743));
#147=EDGE_LOOP('',(#744));
#148=EDGE_LOOP('',(#745));
#149=EDGE_LOOP('',(#746));
#150=EDGE_LOOP('',(#747));
#151=EDGE_LOOP('',(#748,#749,#750,#751,#752,#753,#754,#755,#756,#757,#758,
#759));
#152=EDGE_LOOP('',(#760));
#153=EDGE_LOOP('',(#761));
#154=EDGE_LOOP('',(#762,#763,#764,#765));
#155=EDGE_LOOP('',(#766,#767,#768,#769,#770));
#156=EDGE_LOOP('',(#771));
#157=EDGE_LOOP('',(#772,#773,#774,#775));
#158=EDGE_LOOP('',(#776,#777,#778,#779));
#159=EDGE_LOOP('',(#780,#781,#782,#783));
#160=EDGE_LOOP('',(#784,#785,#786,#787));
#161=EDGE_LOOP('',(#788,#789,#790,#791));
#162=EDGE_LOOP('',(#792));
#163=EDGE_LOOP('',(#793,#794,#795,#796));
#164=EDGE_LOOP('',(#797,#798,#799,#800));
#165=EDGE_LOOP('',(#801,#802,#803,#804,#805,#806));
#166=EDGE_LOOP('',(#807,#808,#809,#810));
#167=EDGE_LOOP('',(#811,#812,#813,#814,#815,#816));
#168=EDGE_LOOP('',(#817,#818,#819,#820));
#169=EDGE_LOOP('',(#821));
#170=EDGE_LOOP('',(#822,#823,#824,#825,#826));
#171=EDGE_LOOP('',(#827,#828,#829,#830));
#172=EDGE_LOOP('',(#831,#832,#833,#834));
#173=EDGE_LOOP('',(#835,#836,#837,#838,#839));
#174=EDGE_LOOP('',(#840,#841,#842,#843,#844,#845));
#175=EDGE_LOOP('',(#846));
#176=EDGE_LOOP('',(#847));
#177=CIRCLE('',#936,2.);
#178=CIRCLE('',#939,8.00000000000001);
#179=CIRCLE('',#942,2.);
#180=CIRCLE('',#945,4.);
#181=CIRCLE('',#947,4.9);
#182=CIRCLE('',#948,1.1);
#183=CIRCLE('',#949,7.1);
#184=CIRCLE('',#950,1.1);
#185=CIRCLE('',#952,7.1);
#186=CIRCLE('',#954,1.1);
#187=CIRCLE('',#957,2.);
#188=CIRCLE('',#960,8.00000000000001);
#189=CIRCLE('',#963,2.);
#190=CIRCLE('',#966,4.);
#191=CIRCLE('',#968,4.9);
#192=CIRCLE('',#969,1.1);
#193=CIRCLE('',#970,7.1);
#194=CIRCLE('',#971,1.1);
#195=CIRCLE('',#973,7.1);
#196=CIRCLE('',#975,1.1);
#197=CIRCLE('',#977,1.5);
#198=CIRCLE('',#978,1.5);
#199=CIRCLE('',#981,1.5);
#200=CIRCLE('',#982,1.5);
#201=CIRCLE('',#986,1.1);
#202=CIRCLE('',#988,1.1);
#203=CIRCLE('',#991,1.1);
#204=CIRCLE('',#993,4.9);
#205=CIRCLE('',#995,4.9);
#206=CIRCLE('',#997,1.1);
#207=CIRCLE('',#1000,1.5);
#208=CIRCLE('',#1001,1.5);
#209=CIRCLE('',#1003,1.5);
#210=CIRCLE('',#1004,1.5);
#211=CIRCLE('',#1012,1.5);
#212=CIRCLE('',#1013,1.5);
#213=CIRCLE('',#1020,1.5);
#214=CIRCLE('',#1022,1.5);
#215=LINE('',#1309,#294);
#216=LINE('',#1312,#295);
#217=LINE('',#1318,#296);
#218=LINE('',#1324,#297);
#219=LINE('',#1339,#298);
#220=LINE('',#1342,#299);
#221=LINE('',#1345,#300);
#222=LINE('',#1352,#301);
#223=LINE('',#1355,#302);
#224=LINE('',#1361,#303);
#225=LINE('',#1367,#304);
#226=LINE('',#1382,#305);
#227=LINE('',#1385,#306);
#228=LINE('',#1388,#307);
#229=LINE('',#1394,#308);
#230=LINE('',#1401,#309);
#231=LINE('',#1408,#310);
#232=LINE('',#1414,#311);
#233=LINE('',#1419,#312);
#234=LINE('',#1424,#313);
#235=LINE('',#1431,#314);
#236=LINE('',#1433,#315);
#237=LINE('',#1435,#316);
#238=LINE('',#1436,#317);
#239=LINE('',#1441,#318);
#240=LINE('',#1447,#319);
#241=LINE('',#1451,#320);
#242=LINE('',#1453,#321);
#243=LINE('',#1455,#322);
#244=LINE('',#1457,#323);
#245=LINE('',#1458,#324);
#246=LINE('',#1461,#325);
#247=LINE('',#1463,#326);
#248=LINE('',#1464,#327);
#249=LINE('',#1467,#328);
#250=LINE('',#1468,#329);
#251=LINE('',#1471,#330);
#252=LINE('',#1473,#331);
#253=LINE('',#1474,#332);
#254=LINE('',#1477,#333);
#255=LINE('',#1479,#334);
#256=LINE('',#1480,#335);
#257=LINE('',#1484,#336);
#258=LINE('',#1485,#337);
#259=LINE('',#1487,#338);
#260=LINE('',#1489,#339);
#261=LINE('',#1491,#340);
#262=LINE('',#1493,#341);
#263=LINE('',#1494,#342);
#264=LINE('',#1497,#343);
#265=LINE('',#1499,#344);
#266=LINE('',#1501,#345);
#267=LINE('',#1503,#346);
#268=LINE('',#1505,#347);
#269=LINE('',#1507,#348);
#270=LINE('',#1509,#349);
#271=LINE('',#1510,#350);
#272=LINE('',#1516,#351);
#273=LINE('',#1517,#352);
#274=LINE('',#1519,#353);
#275=LINE('',#1521,#354);
#276=LINE('',#1523,#355);
#277=LINE('',#1527,#356);
#278=LINE('',#1528,#357);
#279=LINE('',#1529,#358);
#280=LINE('',#1532,#359);
#281=LINE('',#1536,#360);
#282=LINE('',#1541,#361);
#283=LINE('',#1542,#362);
#284=LINE('',#1543,#363);
#285=LINE('',#1546,#364);
#286=LINE('',#1547,#365);
#287=LINE('',#1550,#366);
#288=LINE('',#1551,#367);
#289=LINE('',#1554,#368);
#290=LINE('',#1555,#369);
#291=LINE('',#1558,#370);
#292=LINE('',#1559,#371);
#293=LINE('',#1561,#372);
#294=VECTOR('',#1036,10.);
#295=VECTOR('',#1039,10.);
#296=VECTOR('',#1046,10.);
#297=VECTOR('',#1053,10.);
#298=VECTOR('',#1072,10.);
#299=VECTOR('',#1075,10.);
#300=VECTOR('',#1078,10.);
#301=VECTOR('',#1085,10.);
#302=VECTOR('',#1088,10.);
#303=VECTOR('',#1095,10.);
#304=VECTOR('',#1102,10.);
#305=VECTOR('',#1121,10.);
#306=VECTOR('',#1124,10.);
#307=VECTOR('',#1127,10.);
#308=VECTOR('',#1134,1.5);
#309=VECTOR('',#1143,1.5);
#310=VECTOR('',#1152,1.1);
#311=VECTOR('',#1159,1.1);
#312=VECTOR('',#1166,10.);
#313=VECTOR('',#1173,10.);
#314=VECTOR('',#1182,10.);
#315=VECTOR('',#1183,10.);
#316=VECTOR('',#1184,10.);
#317=VECTOR('',#1185,10.);
#318=VECTOR('',#1190,1.5);
#319=VECTOR('',#1197,1.5);
#320=VECTOR('',#1202,10.);
#321=VECTOR('',#1203,10.);
#322=VECTOR('',#1204,10.);
#323=VECTOR('',#1205,10.);
#324=VECTOR('',#1206,10.);
#325=VECTOR('',#1209,10.);
#326=VECTOR('',#1210,10.);
#327=VECTOR('',#1211,10.);
#328=VECTOR('',#1214,10.);
#329=VECTOR('',#1215,10.);
#330=VECTOR('',#1218,10.);
#331=VECTOR('',#1219,10.);
#332=VECTOR('',#1220,10.);
#333=VECTOR('',#1223,10.);
#334=VECTOR('',#1224,10.);
#335=VECTOR('',#1225,10.);
#336=VECTOR('',#1228,10.);
#337=VECTOR('',#1229,10.);
#338=VECTOR('',#1230,10.);
#339=VECTOR('',#1231,10.);
#340=VECTOR('',#1232,10.);
#341=VECTOR('',#1233,10.);
#342=VECTOR('',#1234,10.);
#343=VECTOR('',#1237,10.);
#344=VECTOR('',#1238,10.);
#345=VECTOR('',#1239,10.);
#346=VECTOR('',#1240,10.);
#347=VECTOR('',#1241,10.);
#348=VECTOR('',#1242,10.);
#349=VECTOR('',#1243,10.);
#350=VECTOR('',#1244,10.);
#351=VECTOR('',#1251,10.);
#352=VECTOR('',#1252,10.);
#353=VECTOR('',#1255,10.);
#354=VECTOR('',#1258,10.);
#355=VECTOR('',#1261,10.);
#356=VECTOR('',#1264,10.);
#357=VECTOR('',#1265,10.);
#358=VECTOR('',#1266,10.);
#359=VECTOR('',#1269,1.5);
#360=VECTOR('',#1274,1.5);
#361=VECTOR('',#1279,10.);
#362=VECTOR('',#1280,10.);
#363=VECTOR('',#1281,10.);
#364=VECTOR('',#1284,10.);
#365=VECTOR('',#1285,10.);
#366=VECTOR('',#1288,10.);
#367=VECTOR('',#1289,10.);
#368=VECTOR('',#1292,10.);
#369=VECTOR('',#1293,10.);
#370=VECTOR('',#1296,10.);
#371=VECTOR('',#1297,10.);
#372=VECTOR('',#1300,10.);
#373=ELLIPSE('',#935,2.08806130178211,2.);
#374=ELLIPSE('',#938,8.35224520712844,8.);
#375=ELLIPSE('',#941,2.08806130178211,2.);
#376=ELLIPSE('',#944,4.17612260356422,4.);
#377=ELLIPSE('',#956,2.08806099640038,2.);
#378=ELLIPSE('',#959,8.35224398560151,8.00000000000001);
#379=ELLIPSE('',#962,2.08806099640038,2.);
#380=ELLIPSE('',#965,4.17612199280075,4.);
#381=ELLIPSE('',#985,1.14843354802021,1.1);
#382=ELLIPSE('',#989,1.14843371598016,1.1);
#383=VERTEX_POINT('',#1305);
#384=VERTEX_POINT('',#1306);
#385=VERTEX_POINT('',#1308);
#386=VERTEX_POINT('',#1310);
#387=VERTEX_POINT('',#1314);
#388=VERTEX_POINT('',#1316);
#389=VERTEX_POINT('',#1320);
#390=VERTEX_POINT('',#1322);
#391=VERTEX_POINT('',#1329);
#392=VERTEX_POINT('',#1330);
#393=VERTEX_POINT('',#1332);
#394=VERTEX_POINT('',#1334);
#395=VERTEX_POINT('',#1338);
#396=VERTEX_POINT('',#1340);
#397=VERTEX_POINT('',#1344);
#398=VERTEX_POINT('',#1348);
#399=VERTEX_POINT('',#1349);
#400=VERTEX_POINT('',#1351);
#401=VERTEX_POINT('',#1353);
#402=VERTEX_POINT('',#1357);
#403=VERTEX_POINT('',#1359);
#404=VERTEX_POINT('',#1363);
#405=VERTEX_POINT('',#1365);
#406=VERTEX_POINT('',#1372);
#407=VERTEX_POINT('',#1373);
#408=VERTEX_POINT('',#1375);
#409=VERTEX_POINT('',#1377);
#410=VERTEX_POINT('',#1381);
#411=VERTEX_POINT('',#1383);
#412=VERTEX_POINT('',#1387);
#413=VERTEX_POINT('',#1391);
#414=VERTEX_POINT('',#1393);
#415=VERTEX_POINT('',#1398);
#416=VERTEX_POINT('',#1400);
#417=VERTEX_POINT('',#1405);
#418=VERTEX_POINT('',#1407);
#419=VERTEX_POINT('',#1411);
#420=VERTEX_POINT('',#1413);
#421=VERTEX_POINT('',#1417);
#422=VERTEX_POINT('',#1423);
#423=VERTEX_POINT('',#1429);
#424=VERTEX_POINT('',#1430);
#425=VERTEX_POINT('',#1432);
#426=VERTEX_POINT('',#1434);
#427=VERTEX_POINT('',#1438);
#428=VERTEX_POINT('',#1440);
#429=VERTEX_POINT('',#1444);
#430=VERTEX_POINT('',#1446);
#431=VERTEX_POINT('',#1450);
#432=VERTEX_POINT('',#1452);
#433=VERTEX_POINT('',#1454);
#434=VERTEX_POINT('',#1456);
#435=VERTEX_POINT('',#1460);
#436=VERTEX_POINT('',#1462);
#437=VERTEX_POINT('',#1466);
#438=VERTEX_POINT('',#1470);
#439=VERTEX_POINT('',#1472);
#440=VERTEX_POINT('',#1476);
#441=VERTEX_POINT('',#1478);
#442=VERTEX_POINT('',#1482);
#443=VERTEX_POINT('',#1483);
#444=VERTEX_POINT('',#1486);
#445=VERTEX_POINT('',#1488);
#446=VERTEX_POINT('',#1490);
#447=VERTEX_POINT('',#1492);
#448=VERTEX_POINT('',#1496);
#449=VERTEX_POINT('',#1498);
#450=VERTEX_POINT('',#1500);
#451=VERTEX_POINT('',#1502);
#452=VERTEX_POINT('',#1504);
#453=VERTEX_POINT('',#1506);
#454=VERTEX_POINT('',#1508);
#455=VERTEX_POINT('',#1511);
#456=VERTEX_POINT('',#1513);
#457=VERTEX_POINT('',#1525);
#458=VERTEX_POINT('',#1526);
#459=VERTEX_POINT('',#1531);
#460=VERTEX_POINT('',#1535);
#461=VERTEX_POINT('',#1539);
#462=VERTEX_POINT('',#1540);
#463=VERTEX_POINT('',#1545);
#464=VERTEX_POINT('',#1549);
#465=VERTEX_POINT('',#1553);
#466=VERTEX_POINT('',#1557);
#467=EDGE_CURVE('',#383,#384,#373,.T.);
#468=EDGE_CURVE('',#385,#383,#215,.T.);
#469=EDGE_CURVE('',#386,#385,#177,.T.);
#470=EDGE_CURVE('',#386,#384,#216,.T.);
#471=EDGE_CURVE('',#384,#387,#374,.T.);
#472=EDGE_CURVE('',#388,#386,#178,.T.);
#473=EDGE_CURVE('',#388,#387,#217,.T.);
#474=EDGE_CURVE('',#387,#389,#375,.T.);
#475=EDGE_CURVE('',#390,#388,#179,.T.);
#476=EDGE_CURVE('',#390,#389,#218,.T.);
#477=EDGE_CURVE('',#389,#383,#376,.T.);
#478=EDGE_CURVE('',#390,#385,#180,.T.);
#479=EDGE_CURVE('',#391,#392,#181,.T.);
#480=EDGE_CURVE('',#393,#391,#182,.T.);
#481=EDGE_CURVE('',#394,#393,#183,.T.);
#482=EDGE_CURVE('',#392,#394,#184,.T.);
#483=EDGE_CURVE('',#395,#393,#219,.T.);
#484=EDGE_CURVE('',#396,#395,#185,.T.);
#485=EDGE_CURVE('',#396,#394,#220,.T.);
#486=EDGE_CURVE('',#397,#391,#221,.T.);
#487=EDGE_CURVE('',#395,#397,#186,.T.);
#488=EDGE_CURVE('',#398,#399,#377,.T.);
#489=EDGE_CURVE('',#400,#398,#222,.T.);
#490=EDGE_CURVE('',#400,#401,#187,.T.);
#491=EDGE_CURVE('',#401,#399,#223,.T.);
#492=EDGE_CURVE('',#399,#402,#378,.T.);
#493=EDGE_CURVE('',#401,#403,#188,.T.);
#494=EDGE_CURVE('',#403,#402,#224,.T.);
#495=EDGE_CURVE('',#402,#404,#379,.T.);
#496=EDGE_CURVE('',#403,#405,#189,.T.);
#497=EDGE_CURVE('',#405,#404,#225,.T.);
#498=EDGE_CURVE('',#404,#398,#380,.T.);
#499=EDGE_CURVE('',#400,#405,#190,.T.);
#500=EDGE_CURVE('',#406,#407,#191,.T.);
#501=EDGE_CURVE('',#408,#406,#192,.T.);
#502=EDGE_CURVE('',#409,#408,#193,.T.);
#503=EDGE_CURVE('',#407,#409,#194,.T.);
#504=EDGE_CURVE('',#408,#410,#226,.T.);
#505=EDGE_CURVE('',#411,#410,#195,.T.);
#506=EDGE_CURVE('',#409,#411,#227,.T.);
#507=EDGE_CURVE('',#412,#406,#228,.T.);
#508=EDGE_CURVE('',#410,#412,#196,.T.);
#509=EDGE_CURVE('',#413,#413,#197,.T.);
#510=EDGE_CURVE('',#413,#414,#229,.T.);
#511=EDGE_CURVE('',#414,#414,#198,.T.);
#512=EDGE_CURVE('',#415,#415,#199,.T.);
#513=EDGE_CURVE('',#415,#416,#230,.T.);
#514=EDGE_CURVE('',#416,#416,#200,.T.);
#515=EDGE_CURVE('',#417,#417,#381,.T.);
#516=EDGE_CURVE('',#417,#418,#231,.T.);
#517=EDGE_CURVE('',#418,#418,#201,.T.);
#518=EDGE_CURVE('',#419,#419,#202,.T.);
#519=EDGE_CURVE('',#419,#420,#232,.T.);
#520=EDGE_CURVE('',#420,#420,#382,.T.);
#521=EDGE_CURVE('',#421,#411,#203,.T.);
#522=EDGE_CURVE('',#407,#421,#233,.T.);
#523=EDGE_CURVE('',#412,#421,#204,.T.);
#524=EDGE_CURVE('',#392,#422,#234,.T.);
#525=EDGE_CURVE('',#397,#422,#205,.T.);
#526=EDGE_CURVE('',#422,#396,#206,.T.);
#527=EDGE_CURVE('',#423,#424,#235,.T.);
#528=EDGE_CURVE('',#423,#425,#236,.T.);
#529=EDGE_CURVE('',#425,#426,#237,.T.);
#530=EDGE_CURVE('',#424,#426,#238,.T.);
#531=EDGE_CURVE('',#427,#427,#207,.T.);
#532=EDGE_CURVE('',#427,#428,#239,.T.);
#533=EDGE_CURVE('',#428,#428,#208,.T.);
#534=EDGE_CURVE('',#429,#429,#209,.T.);
#535=EDGE_CURVE('',#429,#430,#240,.T.);
#536=EDGE_CURVE('',#430,#430,#210,.T.);
#537=EDGE_CURVE('',#431,#423,#241,.T.);
#538=EDGE_CURVE('',#432,#431,#242,.T.);
#539=EDGE_CURVE('',#432,#433,#243,.T.);
#540=EDGE_CURVE('',#434,#433,#244,.T.);
#541=EDGE_CURVE('',#425,#434,#245,.T.);
#542=EDGE_CURVE('',#435,#431,#246,.T.);
#543=EDGE_CURVE('',#436,#435,#247,.T.);
#544=EDGE_CURVE('',#436,#432,#248,.T.);
#545=EDGE_CURVE('',#437,#423,#249,.T.);
#546=EDGE_CURVE('',#435,#437,#250,.T.);
#547=EDGE_CURVE('',#437,#438,#251,.T.);
#548=EDGE_CURVE('',#439,#424,#252,.T.);
#549=EDGE_CURVE('',#438,#439,#253,.T.);
#550=EDGE_CURVE('',#438,#440,#254,.T.);
#551=EDGE_CURVE('',#441,#439,#255,.T.);
#552=EDGE_CURVE('',#440,#441,#256,.T.);
#553=EDGE_CURVE('',#442,#443,#257,.T.);
#554=EDGE_CURVE('',#443,#441,#258,.T.);
#555=EDGE_CURVE('',#426,#444,#259,.T.);
#556=EDGE_CURVE('',#444,#445,#260,.T.);
#557=EDGE_CURVE('',#445,#446,#261,.T.);
#558=EDGE_CURVE('',#446,#447,#262,.T.);
#559=EDGE_CURVE('',#447,#442,#263,.T.);
#560=EDGE_CURVE('',#440,#448,#264,.T.);
#561=EDGE_CURVE('',#448,#449,#265,.T.);
#562=EDGE_CURVE('',#449,#450,#266,.T.);
#563=EDGE_CURVE('',#450,#451,#267,.T.);
#564=EDGE_CURVE('',#451,#452,#268,.T.);
#565=EDGE_CURVE('',#452,#453,#269,.T.);
#566=EDGE_CURVE('',#453,#454,#270,.T.);
#567=EDGE_CURVE('',#454,#436,#271,.T.);
#568=EDGE_CURVE('',#455,#455,#211,.T.);
#569=EDGE_CURVE('',#456,#456,#212,.T.);
#570=EDGE_CURVE('',#450,#445,#272,.T.);
#571=EDGE_CURVE('',#451,#444,#273,.T.);
#572=EDGE_CURVE('',#452,#425,#274,.T.);
#573=EDGE_CURVE('',#453,#434,#275,.T.);
#574=EDGE_CURVE('',#454,#433,#276,.T.);
#575=EDGE_CURVE('',#457,#458,#277,.T.);
#576=EDGE_CURVE('',#458,#442,#278,.T.);
#577=EDGE_CURVE('',#457,#447,#279,.T.);
#578=EDGE_CURVE('',#455,#459,#280,.T.);
#579=EDGE_CURVE('',#459,#459,#213,.T.);
#580=EDGE_CURVE('',#456,#460,#281,.T.);
#581=EDGE_CURVE('',#460,#460,#214,.T.);
#582=EDGE_CURVE('',#461,#462,#282,.T.);
#583=EDGE_CURVE('',#462,#446,#283,.T.);
#584=EDGE_CURVE('',#461,#449,#284,.T.);
#585=EDGE_CURVE('',#461,#463,#285,.T.);
#586=EDGE_CURVE('',#463,#448,#286,.T.);
#587=EDGE_CURVE('',#463,#464,#287,.T.);
#588=EDGE_CURVE('',#464,#443,#288,.T.);
#589=EDGE_CURVE('',#465,#458,#289,.T.);
#590=EDGE_CURVE('',#464,#465,#290,.T.);
#591=EDGE_CURVE('',#466,#465,#291,.T.);
#592=EDGE_CURVE('',#466,#457,#292,.T.);
#593=EDGE_CURVE('',#462,#466,#293,.T.);
#594=ORIENTED_EDGE('',*,*,#467,.F.);
#595=ORIENTED_EDGE('',*,*,#468,.F.);
#596=ORIENTED_EDGE('',*,*,#469,.F.);
#597=ORIENTED_EDGE('',*,*,#470,.T.);
#598=ORIENTED_EDGE('',*,*,#471,.F.);
#599=ORIENTED_EDGE('',*,*,#470,.F.);
#600=ORIENTED_EDGE('',*,*,#472,.F.);
#601=ORIENTED_EDGE('',*,*,#473,.T.);
#602=ORIENTED_EDGE('',*,*,#474,.F.);
#603=ORIENTED_EDGE('',*,*,#473,.F.);
#604=ORIENTED_EDGE('',*,*,#475,.F.);
#605=ORIENTED_EDGE('',*,*,#476,.T.);
#606=ORIENTED_EDGE('',*,*,#477,.F.);
#607=ORIENTED_EDGE('',*,*,#476,.F.);
#608=ORIENTED_EDGE('',*,*,#478,.T.);
#609=ORIENTED_EDGE('',*,*,#468,.T.);
#610=ORIENTED_EDGE('',*,*,#472,.T.);
#611=ORIENTED_EDGE('',*,*,#469,.T.);
#612=ORIENTED_EDGE('',*,*,#478,.F.);
#613=ORIENTED_EDGE('',*,*,#475,.T.);
#614=ORIENTED_EDGE('',*,*,#479,.F.);
#615=ORIENTED_EDGE('',*,*,#480,.F.);
#616=ORIENTED_EDGE('',*,*,#481,.F.);
#617=ORIENTED_EDGE('',*,*,#482,.F.);
#618=ORIENTED_EDGE('',*,*,#481,.T.);
#619=ORIENTED_EDGE('',*,*,#483,.F.);
#620=ORIENTED_EDGE('',*,*,#484,.F.);
#621=ORIENTED_EDGE('',*,*,#485,.T.);
#622=ORIENTED_EDGE('',*,*,#480,.T.);
#623=ORIENTED_EDGE('',*,*,#486,.F.);
#624=ORIENTED_EDGE('',*,*,#487,.F.);
#625=ORIENTED_EDGE('',*,*,#483,.T.);
#626=ORIENTED_EDGE('',*,*,#488,.F.);
#627=ORIENTED_EDGE('',*,*,#489,.F.);
#628=ORIENTED_EDGE('',*,*,#490,.T.);
#629=ORIENTED_EDGE('',*,*,#491,.T.);
#630=ORIENTED_EDGE('',*,*,#492,.F.);
#631=ORIENTED_EDGE('',*,*,#491,.F.);
#632=ORIENTED_EDGE('',*,*,#493,.T.);
#633=ORIENTED_EDGE('',*,*,#494,.T.);
#634=ORIENTED_EDGE('',*,*,#495,.F.);
#635=ORIENTED_EDGE('',*,*,#494,.F.);
#636=ORIENTED_EDGE('',*,*,#496,.T.);
#637=ORIENTED_EDGE('',*,*,#497,.T.);
#638=ORIENTED_EDGE('',*,*,#498,.F.);
#639=ORIENTED_EDGE('',*,*,#497,.F.);
#640=ORIENTED_EDGE('',*,*,#499,.F.);
#641=ORIENTED_EDGE('',*,*,#489,.T.);
#642=ORIENTED_EDGE('',*,*,#493,.F.);
#643=ORIENTED_EDGE('',*,*,#490,.F.);
#644=ORIENTED_EDGE('',*,*,#499,.T.);
#645=ORIENTED_EDGE('',*,*,#496,.F.);
#646=ORIENTED_EDGE('',*,*,#500,.F.);
#647=ORIENTED_EDGE('',*,*,#501,.F.);
#648=ORIENTED_EDGE('',*,*,#502,.F.);
#649=ORIENTED_EDGE('',*,*,#503,.F.);
#650=ORIENTED_EDGE('',*,*,#502,.T.);
#651=ORIENTED_EDGE('',*,*,#504,.T.);
#652=ORIENTED_EDGE('',*,*,#505,.F.);
#653=ORIENTED_EDGE('',*,*,#506,.F.);
#654=ORIENTED_EDGE('',*,*,#501,.T.);
#655=ORIENTED_EDGE('',*,*,#507,.F.);
#656=ORIENTED_EDGE('',*,*,#508,.F.);
#657=ORIENTED_EDGE('',*,*,#504,.F.);
#658=ORIENTED_EDGE('',*,*,#509,.F.);
#659=ORIENTED_EDGE('',*,*,#510,.T.);
#660=ORIENTED_EDGE('',*,*,#511,.T.);
#661=ORIENTED_EDGE('',*,*,#510,.F.);
#662=ORIENTED_EDGE('',*,*,#511,.F.);
#663=ORIENTED_EDGE('',*,*,#512,.F.);
#664=ORIENTED_EDGE('',*,*,#513,.T.);
#665=ORIENTED_EDGE('',*,*,#514,.T.);
#666=ORIENTED_EDGE('',*,*,#513,.F.);
#667=ORIENTED_EDGE('',*,*,#514,.F.);
#668=ORIENTED_EDGE('',*,*,#515,.F.);
#669=ORIENTED_EDGE('',*,*,#516,.T.);
#670=ORIENTED_EDGE('',*,*,#517,.F.);
#671=ORIENTED_EDGE('',*,*,#516,.F.);
#672=ORIENTED_EDGE('',*,*,#518,.F.);
#673=ORIENTED_EDGE('',*,*,#519,.T.);
#674=ORIENTED_EDGE('',*,*,#520,.F.);
#675=ORIENTED_EDGE('',*,*,#519,.F.);
#676=ORIENTED_EDGE('',*,*,#503,.T.);
#677=ORIENTED_EDGE('',*,*,#506,.T.);
#678=ORIENTED_EDGE('',*,*,#521,.F.);
#679=ORIENTED_EDGE('',*,*,#522,.F.);
#680=ORIENTED_EDGE('',*,*,#500,.T.);
#681=ORIENTED_EDGE('',*,*,#522,.T.);
#682=ORIENTED_EDGE('',*,*,#523,.F.);
#683=ORIENTED_EDGE('',*,*,#507,.T.);
#684=ORIENTED_EDGE('',*,*,#479,.T.);
#685=ORIENTED_EDGE('',*,*,#524,.T.);
#686=ORIENTED_EDGE('',*,*,#525,.F.);
#687=ORIENTED_EDGE('',*,*,#486,.T.);
#688=ORIENTED_EDGE('',*,*,#482,.T.);
#689=ORIENTED_EDGE('',*,*,#485,.F.);
#690=ORIENTED_EDGE('',*,*,#526,.F.);
#691=ORIENTED_EDGE('',*,*,#524,.F.);
#692=ORIENTED_EDGE('',*,*,#527,.F.);
#693=ORIENTED_EDGE('',*,*,#528,.T.);
#694=ORIENTED_EDGE('',*,*,#529,.T.);
#695=ORIENTED_EDGE('',*,*,#530,.F.);
#696=ORIENTED_EDGE('',*,*,#531,.F.);
#697=ORIENTED_EDGE('',*,*,#532,.T.);
#698=ORIENTED_EDGE('',*,*,#533,.T.);
#699=ORIENTED_EDGE('',*,*,#532,.F.);
#700=ORIENTED_EDGE('',*,*,#534,.F.);
#701=ORIENTED_EDGE('',*,*,#535,.T.);
#702=ORIENTED_EDGE('',*,*,#536,.T.);
#703=ORIENTED_EDGE('',*,*,#535,.F.);
#704=ORIENTED_EDGE('',*,*,#537,.F.);
#705=ORIENTED_EDGE('',*,*,#538,.F.);
#706=ORIENTED_EDGE('',*,*,#539,.T.);
#707=ORIENTED_EDGE('',*,*,#540,.F.);
#708=ORIENTED_EDGE('',*,*,#541,.F.);
#709=ORIENTED_EDGE('',*,*,#528,.F.);
#710=ORIENTED_EDGE('',*,*,#536,.F.);
#711=ORIENTED_EDGE('',*,*,#533,.F.);
#712=ORIENTED_EDGE('',*,*,#538,.T.);
#713=ORIENTED_EDGE('',*,*,#542,.F.);
#714=ORIENTED_EDGE('',*,*,#543,.F.);
#715=ORIENTED_EDGE('',*,*,#544,.T.);
#716=ORIENTED_EDGE('',*,*,#537,.T.);
#717=ORIENTED_EDGE('',*,*,#545,.F.);
#718=ORIENTED_EDGE('',*,*,#546,.F.);
#719=ORIENTED_EDGE('',*,*,#542,.T.);
#720=ORIENTED_EDGE('',*,*,#547,.F.);
#721=ORIENTED_EDGE('',*,*,#545,.T.);
#722=ORIENTED_EDGE('',*,*,#527,.T.);
#723=ORIENTED_EDGE('',*,*,#548,.F.);
#724=ORIENTED_EDGE('',*,*,#549,.F.);
#725=ORIENTED_EDGE('',*,*,#518,.T.);
#726=ORIENTED_EDGE('',*,*,#525,.T.);
#727=ORIENTED_EDGE('',*,*,#526,.T.);
#728=ORIENTED_EDGE('',*,*,#484,.T.);
#729=ORIENTED_EDGE('',*,*,#487,.T.);
#730=ORIENTED_EDGE('',*,*,#550,.F.);
#731=ORIENTED_EDGE('',*,*,#549,.T.);
#732=ORIENTED_EDGE('',*,*,#551,.F.);
#733=ORIENTED_EDGE('',*,*,#552,.F.);
#734=ORIENTED_EDGE('',*,*,#553,.T.);
#735=ORIENTED_EDGE('',*,*,#554,.T.);
#736=ORIENTED_EDGE('',*,*,#551,.T.);
#737=ORIENTED_EDGE('',*,*,#548,.T.);
#738=ORIENTED_EDGE('',*,*,#530,.T.);
#739=ORIENTED_EDGE('',*,*,#555,.T.);
#740=ORIENTED_EDGE('',*,*,#556,.T.);
#741=ORIENTED_EDGE('',*,*,#557,.T.);
#742=ORIENTED_EDGE('',*,*,#558,.T.);
#743=ORIENTED_EDGE('',*,*,#559,.T.);
#744=ORIENTED_EDGE('',*,*,#509,.T.);
#745=ORIENTED_EDGE('',*,*,#512,.T.);
#746=ORIENTED_EDGE('',*,*,#534,.T.);
#747=ORIENTED_EDGE('',*,*,#531,.T.);
#748=ORIENTED_EDGE('',*,*,#543,.T.);
#749=ORIENTED_EDGE('',*,*,#546,.T.);
#750=ORIENTED_EDGE('',*,*,#547,.T.);
#751=ORIENTED_EDGE('',*,*,#550,.T.);
#752=ORIENTED_EDGE('',*,*,#560,.T.);
#753=ORIENTED_EDGE('',*,*,#561,.T.);
#754=ORIENTED_EDGE('',*,*,#562,.T.);
#755=ORIENTED_EDGE('',*,*,#563,.T.);
#756=ORIENTED_EDGE('',*,*,#564,.T.);
#757=ORIENTED_EDGE('',*,*,#565,.T.);
#758=ORIENTED_EDGE('',*,*,#566,.T.);
#759=ORIENTED_EDGE('',*,*,#567,.T.);
#760=ORIENTED_EDGE('',*,*,#568,.T.);
#761=ORIENTED_EDGE('',*,*,#569,.T.);
#762=ORIENTED_EDGE('',*,*,#563,.F.);
#763=ORIENTED_EDGE('',*,*,#570,.T.);
#764=ORIENTED_EDGE('',*,*,#556,.F.);
#765=ORIENTED_EDGE('',*,*,#571,.F.);
#766=ORIENTED_EDGE('',*,*,#564,.F.);
#767=ORIENTED_EDGE('',*,*,#571,.T.);
#768=ORIENTED_EDGE('',*,*,#555,.F.);
#769=ORIENTED_EDGE('',*,*,#529,.F.);
#770=ORIENTED_EDGE('',*,*,#572,.F.);
#771=ORIENTED_EDGE('',*,*,#517,.T.);
#772=ORIENTED_EDGE('',*,*,#523,.T.);
#773=ORIENTED_EDGE('',*,*,#521,.T.);
#774=ORIENTED_EDGE('',*,*,#505,.T.);
#775=ORIENTED_EDGE('',*,*,#508,.T.);
#776=ORIENTED_EDGE('',*,*,#541,.T.);
#777=ORIENTED_EDGE('',*,*,#573,.F.);
#778=ORIENTED_EDGE('',*,*,#565,.F.);
#779=ORIENTED_EDGE('',*,*,#572,.T.);
#780=ORIENTED_EDGE('',*,*,#540,.T.);
#781=ORIENTED_EDGE('',*,*,#574,.F.);
#782=ORIENTED_EDGE('',*,*,#566,.F.);
#783=ORIENTED_EDGE('',*,*,#573,.T.);
#784=ORIENTED_EDGE('',*,*,#575,.T.);
#785=ORIENTED_EDGE('',*,*,#576,.T.);
#786=ORIENTED_EDGE('',*,*,#559,.F.);
#787=ORIENTED_EDGE('',*,*,#577,.F.);
#788=ORIENTED_EDGE('',*,*,#495,.T.);
#789=ORIENTED_EDGE('',*,*,#498,.T.);
#790=ORIENTED_EDGE('',*,*,#488,.T.);
#791=ORIENTED_EDGE('',*,*,#492,.T.);
#792=ORIENTED_EDGE('',*,*,#515,.T.);
#793=ORIENTED_EDGE('',*,*,#568,.F.);
#794=ORIENTED_EDGE('',*,*,#578,.T.);
#795=ORIENTED_EDGE('',*,*,#579,.T.);
#796=ORIENTED_EDGE('',*,*,#578,.F.);
#797=ORIENTED_EDGE('',*,*,#569,.F.);
#798=ORIENTED_EDGE('',*,*,#580,.T.);
#799=ORIENTED_EDGE('',*,*,#581,.T.);
#800=ORIENTED_EDGE('',*,*,#580,.F.);
#801=ORIENTED_EDGE('',*,*,#582,.T.);
#802=ORIENTED_EDGE('',*,*,#583,.T.);
#803=ORIENTED_EDGE('',*,*,#557,.F.);
#804=ORIENTED_EDGE('',*,*,#570,.F.);
#805=ORIENTED_EDGE('',*,*,#562,.F.);
#806=ORIENTED_EDGE('',*,*,#584,.F.);
#807=ORIENTED_EDGE('',*,*,#585,.F.);
#808=ORIENTED_EDGE('',*,*,#584,.T.);
#809=ORIENTED_EDGE('',*,*,#561,.F.);
#810=ORIENTED_EDGE('',*,*,#586,.F.);
#811=ORIENTED_EDGE('',*,*,#587,.F.);
#812=ORIENTED_EDGE('',*,*,#586,.T.);
#813=ORIENTED_EDGE('',*,*,#560,.F.);
#814=ORIENTED_EDGE('',*,*,#552,.T.);
#815=ORIENTED_EDGE('',*,*,#554,.F.);
#816=ORIENTED_EDGE('',*,*,#588,.F.);
#817=ORIENTED_EDGE('',*,*,#474,.T.);
#818=ORIENTED_EDGE('',*,*,#477,.T.);
#819=ORIENTED_EDGE('',*,*,#467,.T.);
#820=ORIENTED_EDGE('',*,*,#471,.T.);
#821=ORIENTED_EDGE('',*,*,#520,.T.);
#822=ORIENTED_EDGE('',*,*,#553,.F.);
#823=ORIENTED_EDGE('',*,*,#576,.F.);
#824=ORIENTED_EDGE('',*,*,#589,.F.);
#825=ORIENTED_EDGE('',*,*,#590,.F.);
#826=ORIENTED_EDGE('',*,*,#588,.T.);
#827=ORIENTED_EDGE('',*,*,#544,.F.);
#828=ORIENTED_EDGE('',*,*,#567,.F.);
#829=ORIENTED_EDGE('',*,*,#574,.T.);
#830=ORIENTED_EDGE('',*,*,#539,.F.);
#831=ORIENTED_EDGE('',*,*,#591,.T.);
#832=ORIENTED_EDGE('',*,*,#589,.T.);
#833=ORIENTED_EDGE('',*,*,#575,.F.);
#834=ORIENTED_EDGE('',*,*,#592,.F.);
#835=ORIENTED_EDGE('',*,*,#593,.T.);
#836=ORIENTED_EDGE('',*,*,#592,.T.);
#837=ORIENTED_EDGE('',*,*,#577,.T.);
#838=ORIENTED_EDGE('',*,*,#558,.F.);
#839=ORIENTED_EDGE('',*,*,#583,.F.);
#840=ORIENTED_EDGE('',*,*,#593,.F.);
#841=ORIENTED_EDGE('',*,*,#582,.F.);
#842=ORIENTED_EDGE('',*,*,#585,.T.);
#843=ORIENTED_EDGE('',*,*,#587,.T.);
#844=ORIENTED_EDGE('',*,*,#590,.T.);
#845=ORIENTED_EDGE('',*,*,#591,.F.);
#846=ORIENTED_EDGE('',*,*,#581,.F.);
#847=ORIENTED_EDGE('',*,*,#579,.F.);
#848=CYLINDRICAL_SURFACE('',#934,2.);
#849=CYLINDRICAL_SURFACE('',#937,8.00000000000001);
#850=CYLINDRICAL_SURFACE('',#940,2.);
#851=CYLINDRICAL_SURFACE('',#943,4.);
#852=CYLINDRICAL_SURFACE('',#951,7.1);
#853=CYLINDRICAL_SURFACE('',#953,1.1);
#854=CYLINDRICAL_SURFACE('',#955,2.);
#855=CYLINDRICAL_SURFACE('',#958,8.00000000000001);
#856=CYLINDRICAL_SURFACE('',#961,2.);
#857=CYLINDRICAL_SURFACE('',#964,4.);
#858=CYLINDRICAL_SURFACE('',#972,7.1);
#859=CYLINDRICAL_SURFACE('',#974,1.1);
#860=CYLINDRICAL_SURFACE('',#976,1.5);
#861=CYLINDRICAL_SURFACE('',#980,1.5);
#862=CYLINDRICAL_SURFACE('',#984,1.1);
#863=CYLINDRICAL_SURFACE('',#987,1.1);
#864=CYLINDRICAL_SURFACE('',#990,1.1);
#865=CYLINDRICAL_SURFACE('',#992,4.9);
#866=CYLINDRICAL_SURFACE('',#994,4.9);
#867=CYLINDRICAL_SURFACE('',#996,1.1);
#868=CYLINDRICAL_SURFACE('',#999,1.5);
#869=CYLINDRICAL_SURFACE('',#1002,1.5);
#870=CYLINDRICAL_SURFACE('',#1019,1.5);
#871=CYLINDRICAL_SURFACE('',#1021,1.5);
#872=ADVANCED_FACE('',(#60),#848,.F.);
#873=ADVANCED_FACE('',(#61),#849,.F.);
#874=ADVANCED_FACE('',(#62),#850,.F.);
#875=ADVANCED_FACE('',(#63),#851,.T.);
#876=ADVANCED_FACE('',(#64,#15),#36,.T.);
#877=ADVANCED_FACE('',(#65),#852,.F.);
#878=ADVANCED_FACE('',(#66),#853,.F.);
#879=ADVANCED_FACE('',(#67),#854,.F.);
#880=ADVANCED_FACE('',(#68),#855,.F.);
#881=ADVANCED_FACE('',(#69),#856,.F.);
#882=ADVANCED_FACE('',(#70),#857,.T.);
#883=ADVANCED_FACE('',(#71,#16),#37,.F.);
#884=ADVANCED_FACE('',(#72),#858,.F.);
#885=ADVANCED_FACE('',(#73),#859,.F.);
#886=ADVANCED_FACE('',(#74),#860,.F.);
#887=ADVANCED_FACE('',(#75),#38,.T.);
#888=ADVANCED_FACE('',(#76),#861,.F.);
#889=ADVANCED_FACE('',(#77),#39,.T.);
#890=ADVANCED_FACE('',(#78),#862,.F.);
#891=ADVANCED_FACE('',(#79),#863,.F.);
#892=ADVANCED_FACE('',(#80),#864,.F.);
#893=ADVANCED_FACE('',(#81),#865,.T.);
#894=ADVANCED_FACE('',(#82),#866,.T.);
#895=ADVANCED_FACE('',(#83),#867,.F.);
#896=ADVANCED_FACE('',(#84),#40,.T.);
#897=ADVANCED_FACE('',(#85),#868,.F.);
#898=ADVANCED_FACE('',(#86),#869,.F.);
#899=ADVANCED_FACE('',(#87,#17,#18),#41,.F.);
#900=ADVANCED_FACE('',(#88),#42,.T.);
#901=ADVANCED_FACE('',(#89),#43,.T.);
#902=ADVANCED_FACE('',(#90,#19,#20),#44,.T.);
#903=ADVANCED_FACE('',(#91),#45,.T.);
#904=ADVANCED_FACE('',(#92,#21,#22,#23,#24),#46,.T.);
#905=ADVANCED_FACE('',(#93,#25,#26),#47,.T.);
#906=ADVANCED_FACE('',(#94),#48,.T.);
#907=ADVANCED_FACE('',(#95,#27,#28),#49,.T.);
#908=ADVANCED_FACE('',(#96),#50,.T.);
#909=ADVANCED_FACE('',(#97),#51,.T.);
#910=ADVANCED_FACE('',(#98,#29,#30),#52,.T.);
#911=ADVANCED_FACE('',(#99),#870,.F.);
#912=ADVANCED_FACE('',(#100),#871,.F.);
#913=ADVANCED_FACE('',(#101),#53,.T.);
#914=ADVANCED_FACE('',(#102),#54,.T.);
#915=ADVANCED_FACE('',(#103,#31,#32),#55,.T.);
#916=ADVANCED_FACE('',(#104,#33),#56,.T.);
#917=ADVANCED_FACE('',(#105),#57,.T.);
#918=ADVANCED_FACE('',(#106),#58,.T.);
#919=ADVANCED_FACE('',(#107,#34,#35),#59,.F.);
#920=CLOSED_SHELL('',(#872,#873,#874,#875,#876,#877,#878,#879,#880,#881,
#882,#883,#884,#885,#886,#887,#888,#889,#890,#891,#892,#893,#894,#895,#896,
#897,#898,#899,#900,#901,#902,#903,#904,#905,#906,#907,#908,#909,#910,#911,
#912,#913,#914,#915,#916,#917,#918,#919));
#921=DERIVED_UNIT_ELEMENT(#923,1.);
#922=DERIVED_UNIT_ELEMENT(#1568,-3.);
#923=(
MASS_UNIT()
NAMED_UNIT(*)
SI_UNIT(.KILO.,.GRAM.)
);
#924=DERIVED_UNIT((#921,#922));
#925=MEASURE_REPRESENTATION_ITEM('density measure',
POSITIVE_RATIO_MEASURE(7850.),#924);
#926=PROPERTY_DEFINITION_REPRESENTATION(#931,#928);
#927=PROPERTY_DEFINITION_REPRESENTATION(#932,#929);
#928=REPRESENTATION('material name',(#930),#1565);
#929=REPRESENTATION('density',(#925),#1565);
#930=DESCRIPTIVE_REPRESENTATION_ITEM('Steel','Steel');
#931=PROPERTY_DEFINITION('material property','material name',#1575);
#932=PROPERTY_DEFINITION('material property','density of part',#1575);
#933=AXIS2_PLACEMENT_3D('',#1303,#1030,#1031);
#934=AXIS2_PLACEMENT_3D('',#1304,#1032,#1033);
#935=AXIS2_PLACEMENT_3D('',#1307,#1034,#1035);
#936=AXIS2_PLACEMENT_3D('',#1311,#1037,#1038);
#937=AXIS2_PLACEMENT_3D('',#1313,#1040,#1041);
#938=AXIS2_PLACEMENT_3D('',#1315,#1042,#1043);
#939=AXIS2_PLACEMENT_3D('',#1317,#1044,#1045);
#940=AXIS2_PLACEMENT_3D('',#1319,#1047,#1048);
#941=AXIS2_PLACEMENT_3D('',#1321,#1049,#1050);
#942=AXIS2_PLACEMENT_3D('',#1323,#1051,#1052);
#943=AXIS2_PLACEMENT_3D('',#1325,#1054,#1055);
#944=AXIS2_PLACEMENT_3D('',#1326,#1056,#1057);
#945=AXIS2_PLACEMENT_3D('',#1327,#1058,#1059);
#946=AXIS2_PLACEMENT_3D('',#1328,#1060,#1061);
#947=AXIS2_PLACEMENT_3D('',#1331,#1062,#1063);
#948=AXIS2_PLACEMENT_3D('',#1333,#1064,#1065);
#949=AXIS2_PLACEMENT_3D('',#1335,#1066,#1067);
#950=AXIS2_PLACEMENT_3D('',#1336,#1068,#1069);
#951=AXIS2_PLACEMENT_3D('',#1337,#1070,#1071);
#952=AXIS2_PLACEMENT_3D('',#1341,#1073,#1074);
#953=AXIS2_PLACEMENT_3D('',#1343,#1076,#1077);
#954=AXIS2_PLACEMENT_3D('',#1346,#1079,#1080);
#955=AXIS2_PLACEMENT_3D('',#1347,#1081,#1082);
#956=AXIS2_PLACEMENT_3D('',#1350,#1083,#1084);
#957=AXIS2_PLACEMENT_3D('',#1354,#1086,#1087);
#958=AXIS2_PLACEMENT_3D('',#1356,#1089,#1090);
#959=AXIS2_PLACEMENT_3D('',#1358,#1091,#1092);
#960=AXIS2_PLACEMENT_3D('',#1360,#1093,#1094);
#961=AXIS2_PLACEMENT_3D('',#1362,#1096,#1097);
#962=AXIS2_PLACEMENT_3D('',#1364,#1098,#1099);
#963=AXIS2_PLACEMENT_3D('',#1366,#1100,#1101);
#964=AXIS2_PLACEMENT_3D('',#1368,#1103,#1104);
#965=AXIS2_PLACEMENT_3D('',#1369,#1105,#1106);
#966=AXIS2_PLACEMENT_3D('',#1370,#1107,#1108);
#967=AXIS2_PLACEMENT_3D('',#1371,#1109,#1110);
#968=AXIS2_PLACEMENT_3D('',#1374,#1111,#1112);
#969=AXIS2_PLACEMENT_3D('',#1376,#1113,#1114);
#970=AXIS2_PLACEMENT_3D('',#1378,#1115,#1116);
#971=AXIS2_PLACEMENT_3D('',#1379,#1117,#1118);
#972=AXIS2_PLACEMENT_3D('',#1380,#1119,#1120);
#973=AXIS2_PLACEMENT_3D('',#1384,#1122,#1123);
#974=AXIS2_PLACEMENT_3D('',#1386,#1125,#1126);
#975=AXIS2_PLACEMENT_3D('',#1389,#1128,#1129);
#976=AXIS2_PLACEMENT_3D('',#1390,#1130,#1131);
#977=AXIS2_PLACEMENT_3D('',#1392,#1132,#1133);
#978=AXIS2_PLACEMENT_3D('',#1395,#1135,#1136);
#979=AXIS2_PLACEMENT_3D('',#1396,#1137,#1138);
#980=AXIS2_PLACEMENT_3D('',#1397,#1139,#1140);
#981=AXIS2_PLACEMENT_3D('',#1399,#1141,#1142);
#982=AXIS2_PLACEMENT_3D('',#1402,#1144,#1145);
#983=AXIS2_PLACEMENT_3D('',#1403,#1146,#1147);
#984=AXIS2_PLACEMENT_3D('',#1404,#1148,#1149);
#985=AXIS2_PLACEMENT_3D('',#1406,#1150,#1151);
#986=AXIS2_PLACEMENT_3D('',#1409,#1153,#1154);
#987=AXIS2_PLACEMENT_3D('',#1410,#1155,#1156);
#988=AXIS2_PLACEMENT_3D('',#1412,#1157,#1158);
#989=AXIS2_PLACEMENT_3D('',#1415,#1160,#1161);
#990=AXIS2_PLACEMENT_3D('',#1416,#1162,#1163);
#991=AXIS2_PLACEMENT_3D('',#1418,#1164,#1165);
#992=AXIS2_PLACEMENT_3D('',#1420,#1167,#1168);
#993=AXIS2_PLACEMENT_3D('',#1421,#1169,#1170);
#994=AXIS2_PLACEMENT_3D('',#1422,#1171,#1172);
#995=AXIS2_PLACEMENT_3D('',#1425,#1174,#1175);
#996=AXIS2_PLACEMENT_3D('',#1426,#1176,#1177);
#997=AXIS2_PLACEMENT_3D('',#1427,#1178,#1179);
#998=AXIS2_PLACEMENT_3D('',#1428,#1180,#1181);
#999=AXIS2_PLACEMENT_3D('',#1437,#1186,#1187);
#1000=AXIS2_PLACEMENT_3D('',#1439,#1188,#1189);
#1001=AXIS2_PLACEMENT_3D('',#1442,#1191,#1192);
#1002=AXIS2_PLACEMENT_3D('',#1443,#1193,#1194);
#1003=AXIS2_PLACEMENT_3D('',#1445,#1195,#1196);
#1004=AXIS2_PLACEMENT_3D('',#1448,#1198,#1199);
#1005=AXIS2_PLACEMENT_3D('',#1449,#1200,#1201);
#1006=AXIS2_PLACEMENT_3D('',#1459,#1207,#1208);
#1007=AXIS2_PLACEMENT_3D('',#1465,#1212,#1213);
#1008=AXIS2_PLACEMENT_3D('',#1469,#1216,#1217);
#1009=AXIS2_PLACEMENT_3D('',#1475,#1221,#1222);
#1010=AXIS2_PLACEMENT_3D('',#1481,#1226,#1227);
#1011=AXIS2_PLACEMENT_3D('',#1495,#1235,#1236);
#1012=AXIS2_PLACEMENT_3D('',#1512,#1245,#1246);
#1013=AXIS2_PLACEMENT_3D('',#1514,#1247,#1248);
#1014=AXIS2_PLACEMENT_3D('',#1515,#1249,#1250);
#1015=AXIS2_PLACEMENT_3D('',#1518,#1253,#1254);
#1016=AXIS2_PLACEMENT_3D('',#1520,#1256,#1257);
#1017=AXIS2_PLACEMENT_3D('',#1522,#1259,#1260);
#1018=AXIS2_PLACEMENT_3D('',#1524,#1262,#1263);
#1019=AXIS2_PLACEMENT_3D('',#1530,#1267,#1268);
#1020=AXIS2_PLACEMENT_3D('',#1533,#1270,#1271);
#1021=AXIS2_PLACEMENT_3D('',#1534,#1272,#1273);
#1022=AXIS2_PLACEMENT_3D('',#1537,#1275,#1276);
#1023=AXIS2_PLACEMENT_3D('',#1538,#1277,#1278);
#1024=AXIS2_PLACEMENT_3D('',#1544,#1282,#1283);
#1025=AXIS2_PLACEMENT_3D('',#1548,#1286,#1287);
#1026=AXIS2_PLACEMENT_3D('',#1552,#1290,#1291);
#1027=AXIS2_PLACEMENT_3D('',#1556,#1294,#1295);
#1028=AXIS2_PLACEMENT_3D('',#1560,#1298,#1299);
#1029=AXIS2_PLACEMENT_3D('',#1562,#1301,#1302);
#1030=DIRECTION('axis',(0.,0.,1.));
#1031=DIRECTION('refdir',(1.,0.,0.));
#1032=DIRECTION('center_axis',(1.,0.,0.));
#1033=DIRECTION('ref_axis',(0.,-0.707106781186548,0.707106781186548));
#1034=DIRECTION('center_axis',(-0.957826285221152,-0.287347885566345,0.));
#1035=DIRECTION('ref_axis',(0.287347885566345,-0.957826285221151,1.32925099430463E-16));
#1036=DIRECTION('',(1.,0.,0.));
#1037=DIRECTION('center_axis',(1.,0.,0.));
#1038=DIRECTION('ref_axis',(0.,-0.707106781186548,0.707106781186548));
#1039=DIRECTION('',(1.,0.,0.));
#1040=DIRECTION('center_axis',(1.,0.,0.));
#1041=DIRECTION('ref_axis',(0.,0.,1.));
#1042=DIRECTION('center_axis',(-0.957826285221152,-0.287347885566345,0.));
#1043=DIRECTION('ref_axis',(0.287347885566345,-0.957826285221152,0.));
#1044=DIRECTION('center_axis',(1.,0.,0.));
#1045=DIRECTION('ref_axis',(0.,0.,1.));
#1046=DIRECTION('',(1.,0.,0.));
#1047=DIRECTION('center_axis',(1.,0.,0.));
#1048=DIRECTION('ref_axis',(0.,0.,-1.));
#1049=DIRECTION('center_axis',(-0.957826285221152,-0.287347885566345,0.));
#1050=DIRECTION('ref_axis',(-0.287347885566345,0.957826285221151,0.));
#1051=DIRECTION('center_axis',(1.,0.,0.));
#1052=DIRECTION('ref_axis',(0.,0.,-1.));
#1053=DIRECTION('',(1.,0.,0.));
#1054=DIRECTION('center_axis',(1.,0.,0.));
#1055=DIRECTION('ref_axis',(0.,0.,1.));
#1056=DIRECTION('center_axis',(0.957826285221152,0.287347885566345,0.));
#1057=DIRECTION('ref_axis',(0.287347885566345,-0.957826285221152,0.));
#1058=DIRECTION('center_axis',(1.,0.,0.));
#1059=DIRECTION('ref_axis',(0.,0.,1.));
#1060=DIRECTION('center_axis',(1.,0.,0.));
#1061=DIRECTION('ref_axis',(0.,1.,0.));
#1062=DIRECTION('center_axis',(-1.,0.,0.));
#1063=DIRECTION('ref_axis',(0.,0.,1.));
#1064=DIRECTION('center_axis',(1.,0.,0.));
#1065=DIRECTION('ref_axis',(0.,-0.707106781186547,0.707106781186547));
#1066=DIRECTION('center_axis',(1.,0.,0.));
#1067=DIRECTION('ref_axis',(0.,0.,1.));
#1068=DIRECTION('center_axis',(1.,0.,0.));
#1069=DIRECTION('ref_axis',(0.,0.,-1.));
#1070=DIRECTION('center_axis',(1.,0.,0.));
#1071=DIRECTION('ref_axis',(0.,0.,1.));
#1072=DIRECTION('',(1.,0.,0.));
#1073=DIRECTION('center_axis',(1.,-2.22374489193082E-9,0.));
#1074=DIRECTION('ref_axis',(0.,0.,1.));
#1075=DIRECTION('',(1.,0.,0.));
#1076=DIRECTION('center_axis',(1.,0.,0.));
#1077=DIRECTION('ref_axis',(0.,-0.707106781186547,0.707106781186547));
#1078=DIRECTION('',(1.,0.,0.));
#1079=DIRECTION('center_axis',(1.,-2.22374489193082E-9,0.));
#1080=DIRECTION('ref_axis',(-1.57242509271323E-9,-0.707106781186547,0.707106781186547));
#1081=DIRECTION('center_axis',(-1.,0.,0.));
#1082=DIRECTION('ref_axis',(0.,0.,-1.));
#1083=DIRECTION('center_axis',(0.957826425304537,-0.287347418621315,0.));
#1084=DIRECTION('ref_axis',(-0.287347418621315,-0.957826425304537,0.));
#1085=DIRECTION('',(-1.,0.,0.));
#1086=DIRECTION('center_axis',(1.,0.,0.));
#1087=DIRECTION('ref_axis',(0.,0.,-1.));
#1088=DIRECTION('',(-1.,0.,0.));
#1089=DIRECTION('center_axis',(-1.,0.,0.));
#1090=DIRECTION('ref_axis',(0.,0.,1.));
#1091=DIRECTION('center_axis',(0.957826425304537,-0.287347418621315,0.));
#1092=DIRECTION('ref_axis',(0.287347418621315,0.957826425304537,0.));
#1093=DIRECTION('center_axis',(1.,0.,0.));
#1094=DIRECTION('ref_axis',(0.,0.,1.));
#1095=DIRECTION('',(-1.,0.,0.));
#1096=DIRECTION('center_axis',(-1.,0.,0.));
#1097=DIRECTION('ref_axis',(0.,-0.707106781186548,0.707106781186548));
#1098=DIRECTION('center_axis',(0.957826425304537,-0.287347418621315,0.));
#1099=DIRECTION('ref_axis',(-0.287347418621315,-0.957826425304537,1.32925118870938E-16));
#1100=DIRECTION('center_axis',(1.,0.,0.));
#1101=DIRECTION('ref_axis',(0.,-0.707106781186548,0.707106781186548));
#1102=DIRECTION('',(-1.,0.,0.));
#1103=DIRECTION('center_axis',(-1.,0.,0.));
#1104=DIRECTION('ref_axis',(0.,0.,1.));
#1105=DIRECTION('center_axis',(-0.957826425304537,0.287347418621315,0.));
#1106=DIRECTION('ref_axis',(0.287347418621315,0.957826425304537,0.));
#1107=DIRECTION('center_axis',(1.,0.,0.));
#1108=DIRECTION('ref_axis',(0.,0.,1.));
#1109=DIRECTION('center_axis',(1.,0.,0.));
#1110=DIRECTION('ref_axis',(0.,1.,0.));
#1111=DIRECTION('center_axis',(1.,0.,0.));
#1112=DIRECTION('ref_axis',(0.,0.,1.));
#1113=DIRECTION('center_axis',(-1.,0.,0.));
#1114=DIRECTION('ref_axis',(0.,0.,-1.));
#1115=DIRECTION('center_axis',(-1.,0.,0.));
#1116=DIRECTION('ref_axis',(0.,0.,1.));
#1117=DIRECTION('center_axis',(-1.,0.,0.));
#1118=DIRECTION('ref_axis',(0.,-0.707106781186547,0.707106781186547));
#1119=DIRECTION('center_axis',(1.,0.,0.));
#1120=DIRECTION('ref_axis',(0.,0.,1.));
#1121=DIRECTION('',(1.,0.,0.));
#1122=DIRECTION('center_axis',(-1.,-4.16333634234434E-16,0.));
#1123=DIRECTION('ref_axis',(0.,0.,1.));
#1124=DIRECTION('',(1.,0.,0.));
#1125=DIRECTION('center_axis',(1.,0.,0.));
#1126=DIRECTION('ref_axis',(0.,0.,-1.));
#1127=DIRECTION('',(-1.,0.,0.));
#1128=DIRECTION('center_axis',(-1.,-4.16333634234434E-16,0.));
#1129=DIRECTION('ref_axis',(0.,0.,-1.));
#1130=DIRECTION('center_axis',(0.,0.,-1.));
#1131=DIRECTION('ref_axis',(-1.,0.,0.));
#1132=DIRECTION('center_axis',(0.,0.,-1.));
#1133=DIRECTION('ref_axis',(-1.,0.,0.));
#1134=DIRECTION('',(0.,0.,-1.));
#1135=DIRECTION('center_axis',(0.,0.,-1.));
#1136=DIRECTION('ref_axis',(-1.,0.,0.));
#1137=DIRECTION('center_axis',(0.,0.,1.));
#1138=DIRECTION('ref_axis',(-1.,0.,0.));
#1139=DIRECTION('center_axis',(0.,0.,-1.));
#1140=DIRECTION('ref_axis',(-1.,0.,0.));
#1141=DIRECTION('center_axis',(0.,0.,-1.));
#1142=DIRECTION('ref_axis',(-1.,0.,0.));
#1143=DIRECTION('',(0.,0.,-1.));
#1144=DIRECTION('center_axis',(0.,0.,-1.));
#1145=DIRECTION('ref_axis',(-1.,0.,0.));
#1146=DIRECTION('center_axis',(0.,0.,1.));
#1147=DIRECTION('ref_axis',(-1.,0.,0.));
#1148=DIRECTION('center_axis',(1.,0.,0.));
#1149=DIRECTION('ref_axis',(0.,1.,0.));
#1150=DIRECTION('center_axis',(0.957826425304537,-0.287347418621315,0.));
#1151=DIRECTION('ref_axis',(0.287347418621315,0.957826425304536,0.));
#1152=DIRECTION('',(1.,0.,0.));
#1153=DIRECTION('center_axis',(-1.,-4.16333634234434E-16,0.));
#1154=DIRECTION('ref_axis',(0.,1.,0.));
#1155=DIRECTION('center_axis',(1.,0.,0.));
#1156=DIRECTION('ref_axis',(0.,1.,0.));
#1157=DIRECTION('center_axis',(1.,-2.22374489193082E-9,0.));
#1158=DIRECTION('ref_axis',(2.22374489193082E-9,1.,0.));
#1159=DIRECTION('',(1.,0.,0.));
#1160=DIRECTION('center_axis',(-0.957826285221152,-0.287347885566345,0.));
#1161=DIRECTION('ref_axis',(-0.287347885566345,0.957826285221151,0.));
#1162=DIRECTION('center_axis',(1.,0.,0.));
#1163=DIRECTION('ref_axis',(0.,-0.707106781186547,0.707106781186547));
#1164=DIRECTION('center_axis',(-1.,-4.16333634234434E-16,0.));
#1165=DIRECTION('ref_axis',(0.,-0.707106781186547,0.707106781186547));
#1166=DIRECTION('',(1.,0.,0.));
#1167=DIRECTION('center_axis',(1.,0.,0.));
#1168=DIRECTION('ref_axis',(0.,0.,1.));
#1169=DIRECTION('center_axis',(1.,4.16333634234434E-16,0.));
#1170=DIRECTION('ref_axis',(0.,0.,1.));
#1171=DIRECTION('center_axis',(1.,0.,0.));
#1172=DIRECTION('ref_axis',(0.,0.,1.));
#1173=DIRECTION('',(-1.,0.,0.));
#1174=DIRECTION('center_axis',(-1.,2.22374489193082E-9,0.));
#1175=DIRECTION('ref_axis',(0.,0.,1.));
#1176=DIRECTION('center_axis',(1.,0.,0.));
#1177=DIRECTION('ref_axis',(0.,0.,-1.));
#1178=DIRECTION('center_axis',(1.,-2.22374489193082E-9,0.));
#1179=DIRECTION('ref_axis',(0.,0.,-1.));
#1180=DIRECTION('center_axis',(-2.31296463463574E-16,1.,0.));
#1181=DIRECTION('ref_axis',(-1.,-2.31296463463574E-16,0.));
#1182=DIRECTION('',(0.,0.,1.));
#1183=DIRECTION('',(-1.,-2.31296463463574E-16,0.));
#1184=DIRECTION('',(0.,0.,1.));
#1185=DIRECTION('',(-1.,-2.31296463463574E-16,0.));
#1186=DIRECTION('center_axis',(0.,0.,1.));
#1187=DIRECTION('ref_axis',(1.,0.,0.));
#1188=DIRECTION('center_axis',(0.,0.,-1.));
#1189=DIRECTION('ref_axis',(1.,0.,0.));
#1190=DIRECTION('',(0.,0.,-1.));
#1191=DIRECTION('center_axis',(0.,0.,-1.));
#1192=DIRECTION('ref_axis',(1.,0.,0.));
#1193=DIRECTION('center_axis',(0.,0.,1.));
#1194=DIRECTION('ref_axis',(1.,0.,0.));
#1195=DIRECTION('center_axis',(0.,0.,-1.));
#1196=DIRECTION('ref_axis',(1.,0.,0.));
#1197=DIRECTION('',(0.,0.,-1.));
#1198=DIRECTION('center_axis',(0.,0.,-1.));
#1199=DIRECTION('ref_axis',(1.,0.,0.));
#1200=DIRECTION('center_axis',(0.,0.,1.));
#1201=DIRECTION('ref_axis',(-1.,0.,0.));
#1202=DIRECTION('',(-1.,-1.77635683940025E-15,0.));
#1203=DIRECTION('',(-3.70067745143559E-16,1.,0.));
#1204=DIRECTION('',(-1.,-2.01858837388619E-16,0.));
#1205=DIRECTION('',(-3.70087194862813E-16,-1.,0.));
#1206=DIRECTION('',(-1.,0.,0.));
#1207=DIRECTION('center_axis',(-1.,-3.70067745143559E-16,0.));
#1208=DIRECTION('ref_axis',(3.70067745143559E-16,-1.,0.));
#1209=DIRECTION('',(0.,0.,1.));
#1210=DIRECTION('',(-3.70067745143559E-16,1.,0.));
#1211=DIRECTION('',(0.,0.,1.));
#1212=DIRECTION('center_axis',(1.77635683940025E-15,-1.,0.));
#1213=DIRECTION('ref_axis',(1.,1.77635683940025E-15,0.));
#1214=DIRECTION('',(0.,0.,1.));
#1215=DIRECTION('',(-1.,-1.77635683940025E-15,0.));
#1216=DIRECTION('center_axis',(-1.,2.22374489193082E-9,0.));
#1217=DIRECTION('ref_axis',(-2.22374489193082E-9,-1.,0.));
#1218=DIRECTION('',(2.22374489193082E-9,1.,0.));
#1219=DIRECTION('',(-2.22374489193082E-9,-1.,0.));
#1220=DIRECTION('',(0.,0.,1.));
#1221=DIRECTION('center_axis',(-0.499999998074182,0.86602540489631,0.));
#1222=DIRECTION('ref_axis',(-0.86602540489631,-0.499999998074182,0.));
#1223=DIRECTION('',(0.86602540489631,0.499999998074182,0.));
#1224=DIRECTION('',(-0.86602540489631,-0.499999998074182,0.));
#1225=DIRECTION('',(0.,0.,1.));
#1226=DIRECTION('center_axis',(0.,0.,1.));
#1227=DIRECTION('ref_axis',(1.,0.,0.));
#1228=DIRECTION('',(1.,2.01858837388619E-16,0.));
#1229=DIRECTION('',(-0.287347885566345,0.957826285221152,0.));
#1230=DIRECTION('',(-4.16333634234434E-16,1.,0.));
#1231=DIRECTION('',(-0.866025403784439,0.5,0.));
#1232=DIRECTION('',(-1.,0.,0.));
#1233=DIRECTION('',(-0.866025403784439,0.5,0.));
#1234=DIRECTION('',(-0.287347418621315,-0.957826425304537,0.));
#1235=DIRECTION('center_axis',(0.,0.,1.));
#1236=DIRECTION('ref_axis',(1.,0.,0.));
#1237=DIRECTION('',(-0.287347885566345,0.957826285221151,0.));
#1238=DIRECTION('',(-0.866025403784437,-0.500000000000004,0.));
#1239=DIRECTION('',(-1.,0.,0.));
#1240=DIRECTION('',(0.866025403784439,-0.5,0.));
#1241=DIRECTION('',(4.16333634234434E-16,-1.,0.));
#1242=DIRECTION('',(-1.,0.,0.));
#1243=DIRECTION('',(-3.70087194862813E-16,-1.,0.));
#1244=DIRECTION('',(1.,0.,0.));
#1245=DIRECTION('center_axis',(0.,0.,-1.));
#1246=DIRECTION('ref_axis',(1.,0.,0.));
#1247=DIRECTION('center_axis',(0.,0.,-1.));
#1248=DIRECTION('ref_axis',(1.,0.,0.));
#1249=DIRECTION('center_axis',(0.5,0.866025403784439,0.));
#1250=DIRECTION('ref_axis',(-0.866025403784439,0.5,0.));
#1251=DIRECTION('',(0.,0.,1.));
#1252=DIRECTION('',(0.,0.,1.));
#1253=DIRECTION('center_axis',(1.,4.16333634234434E-16,0.));
#1254=DIRECTION('ref_axis',(-4.16333634234434E-16,1.,0.));
#1255=DIRECTION('',(0.,0.,1.));
#1256=DIRECTION('center_axis',(0.,-1.,0.));
#1257=DIRECTION('ref_axis',(1.,0.,0.));
#1258=DIRECTION('',(0.,0.,1.));
#1259=DIRECTION('center_axis',(1.,-3.70087194862813E-16,0.));
#1260=DIRECTION('ref_axis',(3.70087194862813E-16,1.,0.));
#1261=DIRECTION('',(0.,0.,1.));
#1262=DIRECTION('center_axis',(-0.957826425304537,0.287347418621315,0.));
#1263=DIRECTION('ref_axis',(-0.287347418621315,-0.957826425304537,0.));
#1264=DIRECTION('',(-0.287347885566346,-0.957826285221151,0.));
#1265=DIRECTION('',(0.,0.,1.));
#1266=DIRECTION('',(0.,0.,1.));
#1267=DIRECTION('center_axis',(0.,0.,1.));
#1268=DIRECTION('ref_axis',(1.,0.,0.));
#1269=DIRECTION('',(0.,0.,-1.));
#1270=DIRECTION('center_axis',(0.,0.,-1.));
#1271=DIRECTION('ref_axis',(1.,0.,0.));
#1272=DIRECTION('center_axis',(0.,0.,1.));
#1273=DIRECTION('ref_axis',(1.,0.,0.));
#1274=DIRECTION('',(0.,0.,-1.));
#1275=DIRECTION('center_axis',(0.,0.,-1.));
#1276=DIRECTION('ref_axis',(1.,0.,0.));
#1277=DIRECTION('center_axis',(0.,1.,0.));
#1278=DIRECTION('ref_axis',(-1.,0.,0.));
#1279=DIRECTION('',(-1.,0.,0.));
#1280=DIRECTION('',(0.,0.,1.));
#1281=DIRECTION('',(0.,0.,1.));
#1282=DIRECTION('center_axis',(-0.500000000000004,0.866025403784437,0.));
#1283=DIRECTION('ref_axis',(-0.866025403784437,-0.500000000000004,0.));
#1284=DIRECTION('',(0.866025403784437,0.500000000000004,0.));
#1285=DIRECTION('',(0.,0.,1.));
#1286=DIRECTION('center_axis',(0.957826285221152,0.287347885566345,0.));
#1287=DIRECTION('ref_axis',(-0.287347885566345,0.957826285221151,0.));
#1288=DIRECTION('',(0.287347885566345,-0.957826285221151,0.));
#1289=DIRECTION('',(0.,0.,1.));
#1290=DIRECTION('center_axis',(0.,-1.,0.));
#1291=DIRECTION('ref_axis',(1.,0.,0.));
#1292=DIRECTION('',(0.,0.,1.));
#1293=DIRECTION('',(-1.,0.,0.));
#1294=DIRECTION('center_axis',(-0.957826285221151,0.287347885566346,0.));
#1295=DIRECTION('ref_axis',(-0.287347885566346,-0.957826285221151,0.));
#1296=DIRECTION('',(-0.287347885566346,-0.957826285221151,0.));
#1297=DIRECTION('',(0.,0.,1.));
#1298=DIRECTION('center_axis',(0.5,0.866025403784438,0.));
#1299=DIRECTION('ref_axis',(-0.866025403784438,0.5,0.));
#1300=DIRECTION('',(-0.866025403784438,0.5,0.));
#1301=DIRECTION('center_axis',(0.,0.,1.));
#1302=DIRECTION('ref_axis',(1.,0.,0.));
#1303=CARTESIAN_POINT('',(0.,0.,0.));
#1304=CARTESIAN_POINT('Origin',(12.5811324152847,39.7571509297548,19.2426406871193));
#1305=CARTESIAN_POINT('',(19.1485906613024,41.1713644623255,17.8284270949439));
#1306=CARTESIAN_POINT('',(19.9971187897855,38.3429373673817,20.6568542494924));
#1307=CARTESIAN_POINT('Origin',(19.5728547210736,39.7571509297548,19.2426406871193));
#1308=CARTESIAN_POINT('',(12.5811324152847,41.1713644623255,17.8284270949439));
#1309=CARTESIAN_POINT('',(12.5811324152847,41.1713644623255,17.8284270949439));
#1310=CARTESIAN_POINT('',(12.5811324152847,38.3429373673817,20.6568542494924));
#1311=CARTESIAN_POINT('Origin',(12.5811324152847,39.7571509297548,19.2426406871193));
#1312=CARTESIAN_POINT('',(12.5811324152847,38.3429373673817,20.6568542494924));
#1313=CARTESIAN_POINT('Origin',(12.5811324152847,43.9997916168741,15.));
#1314=CARTESIAN_POINT('',(18.3000625149378,43.9997916168741,23.));
#1315=CARTESIAN_POINT('Origin',(18.3000625149378,43.9997916168741,15.));
#1316=CARTESIAN_POINT('',(12.5811324152847,43.9997916168741,23.));
#1317=CARTESIAN_POINT('Origin',(12.5811324152847,43.9997916168741,15.));
#1318=CARTESIAN_POINT('',(12.5811324152847,43.9997916168741,23.));
#1319=CARTESIAN_POINT('Origin',(12.5811324152847,43.9997916168741,21.));
#1320=CARTESIAN_POINT('',(18.3000625149378,43.9997916168741,19.));
#1321=CARTESIAN_POINT('Origin',(18.3000625149378,43.9997916168741,21.));
#1322=CARTESIAN_POINT('',(12.5811324152847,43.9997916168741,19.));
#1323=CARTESIAN_POINT('Origin',(12.5811324152847,43.9997916168741,21.));
#1324=CARTESIAN_POINT('',(12.5811324152847,43.9997916168741,19.));
#1325=CARTESIAN_POINT('Origin',(12.5811324152847,43.9997916168741,15.));
#1326=CARTESIAN_POINT('Origin',(18.3000625149378,43.9997916168741,15.));
#1327=CARTESIAN_POINT('Origin',(12.5811324152847,43.9997916168741,15.));
#1328=CARTESIAN_POINT('Origin',(12.5811324152847,50.1284712733144,15.5));
#1329=CARTESIAN_POINT('',(12.5811324152847,40.53496838906,18.4648232278141));
#1330=CARTESIAN_POINT('',(12.5811324152847,43.9997916168741,19.9));
#1331=CARTESIAN_POINT('Origin',(12.5811324152847,43.9997916168741,15.));
#1332=CARTESIAN_POINT('',(12.5811324152847,38.9793334704496,20.0204581464245));
#1333=CARTESIAN_POINT('Origin',(12.5811324152847,39.7571509297548,19.2426406871193));
#1334=CARTESIAN_POINT('',(12.5811324152847,43.9997916168741,22.1));
#1335=CARTESIAN_POINT('Origin',(12.5811324152847,43.9997916168741,15.));
#1336=CARTESIAN_POINT('Origin',(12.5811324152847,43.9997916168741,21.));
#1337=CARTESIAN_POINT('Origin',(-9.6188675847153,43.9997916168741,15.));
#1338=CARTESIAN_POINT('',(9.58113241635108,38.9793334704496,20.0204581464245));
#1339=CARTESIAN_POINT('',(-9.6188675847153,38.9793334704496,20.0204581464245));
#1340=CARTESIAN_POINT('',(9.5811324275153,43.9997916168741,22.1));
#1341=CARTESIAN_POINT('Origin',(9.5811324275153,43.9997916168741,15.));
#1342=CARTESIAN_POINT('',(-9.6188675847153,43.9997916168741,22.1));
#1343=CARTESIAN_POINT('Origin',(-9.6188675847153,39.7571509297548,19.2426406871193));
#1344=CARTESIAN_POINT('',(9.58113241981042,40.53496838906,18.4648232278141));
#1345=CARTESIAN_POINT('',(-9.6188675847153,40.53496838906,18.4648232278141));
#1346=CARTESIAN_POINT('Origin',(9.58113241808075,39.7571509297548,19.2426406871193));
#1347=CARTESIAN_POINT('Origin',(-12.6188675847153,43.9997916168741,21.));
#1348=CARTESIAN_POINT('',(-18.3000513558418,43.9997916168741,19.));
#1349=CARTESIAN_POINT('',(-18.3000513558418,43.9997916168741,23.));
#1350=CARTESIAN_POINT('Origin',(-18.3000513558418,43.9997916168741,21.));
#1351=CARTESIAN_POINT('',(-12.6188675847153,43.9997916168741,19.));
#1352=CARTESIAN_POINT('',(-12.6188675847153,43.9997916168741,19.));
#1353=CARTESIAN_POINT('',(-12.6188675847153,43.9997916168741,23.));
#1354=CARTESIAN_POINT('Origin',(-12.6188675847153,43.9997916168741,21.));
#1355=CARTESIAN_POINT('',(-12.6188675847153,43.9997916168741,23.));
#1356=CARTESIAN_POINT('Origin',(-12.6188675847153,43.9997916168741,15.));
#1357=CARTESIAN_POINT('',(-19.9971046247489,38.3429373673817,20.6568542494924));
#1358=CARTESIAN_POINT('Origin',(-18.3000513558418,43.9997916168741,15.));
#1359=CARTESIAN_POINT('',(-12.6188675847153,38.3429373673817,20.6568542494924));
#1360=CARTESIAN_POINT('Origin',(-12.6188675847153,43.9997916168741,15.));
#1361=CARTESIAN_POINT('',(-12.6188675847153,38.3429373673817,20.6568542494924));
#1362=CARTESIAN_POINT('Origin',(-12.6188675847153,39.7571509297548,19.2426406871193));
#1363=CARTESIAN_POINT('',(-19.148577999236,41.1713644623255,17.8284270949439));
#1364=CARTESIAN_POINT('Origin',(-19.5728413075221,39.7571509297548,19.2426406871193));
#1365=CARTESIAN_POINT('',(-12.6188675847153,41.1713644623255,17.8284270949439));
#1366=CARTESIAN_POINT('Origin',(-12.6188675847153,39.7571509297548,19.2426406871193));
#1367=CARTESIAN_POINT('',(-12.6188675847153,41.1713644623255,17.8284270949439));
#1368=CARTESIAN_POINT('Origin',(-12.6188675847153,43.9997916168741,15.));
#1369=CARTESIAN_POINT('Origin',(-18.3000513558418,43.9997916168741,15.));
#1370=CARTESIAN_POINT('Origin',(-12.6188675847153,43.9997916168741,15.));
#1371=CARTESIAN_POINT('Origin',(-12.6188675847153,50.1284712733144,15.5));
#1372=CARTESIAN_POINT('',(-12.6188675847153,43.9997916168741,19.9));
#1373=CARTESIAN_POINT('',(-12.6188675847153,40.53496838906,18.4648232278141));
#1374=CARTESIAN_POINT('Origin',(-12.6188675847153,43.9997916168741,15.));
#1375=CARTESIAN_POINT('',(-12.6188675847153,43.9997916168741,22.1));
#1376=CARTESIAN_POINT('Origin',(-12.6188675847153,43.9997916168741,21.));
#1377=CARTESIAN_POINT('',(-12.6188675847153,38.9793334704496,20.0204581464245));
#1378=CARTESIAN_POINT('Origin',(-12.6188675847153,43.9997916168741,15.));
#1379=CARTESIAN_POINT('Origin',(-12.6188675847153,39.7571509297548,19.2426406871193));
#1380=CARTESIAN_POINT('Origin',(-9.6188675847153,43.9997916168741,15.));
#1381=CARTESIAN_POINT('',(-9.6188675847153,43.9997916168741,22.1));
#1382=CARTESIAN_POINT('',(-9.6188675847153,43.9997916168741,22.1));
#1383=CARTESIAN_POINT('',(-9.61886758471529,38.9793334704496,20.0204581464245));
#1384=CARTESIAN_POINT('Origin',(-9.61886758471529,43.9997916168741,15.));
#1385=CARTESIAN_POINT('',(-9.6188675847153,38.9793334704496,20.0204581464245));
#1386=CARTESIAN_POINT('Origin',(-9.6188675847153,43.9997916168741,21.));
#1387=CARTESIAN_POINT('',(-9.6188675847153,43.9997916168741,19.9));
#1388=CARTESIAN_POINT('',(-9.6188675847153,43.9997916168741,19.9));
#1389=CARTESIAN_POINT('Origin',(-9.61886758471529,43.9997916168741,21.));
#1390=CARTESIAN_POINT('Origin',(-12.6,52.,28.));
#1391=CARTESIAN_POINT('',(-11.1,52.,28.));
#1392=CARTESIAN_POINT('Origin',(-12.6,52.,28.));
#1393=CARTESIAN_POINT('',(-11.1,52.,23.));
#1394=CARTESIAN_POINT('',(-11.1,52.,28.));
#1395=CARTESIAN_POINT('Origin',(-12.6,52.,23.));
#1396=CARTESIAN_POINT('Origin',(-12.6,52.,23.));
#1397=CARTESIAN_POINT('Origin',(12.6,52.,28.));
#1398=CARTESIAN_POINT('',(14.1,52.,28.));
#1399=CARTESIAN_POINT('Origin',(12.6,52.,28.));
#1400=CARTESIAN_POINT('',(14.1,52.,23.));
#1401=CARTESIAN_POINT('',(14.1,52.,28.));
#1402=CARTESIAN_POINT('Origin',(12.6,52.,23.));
#1403=CARTESIAN_POINT('Origin',(12.6,52.,23.));
#1404=CARTESIAN_POINT('Origin',(-9.6188675847153,43.9997916168741,15.));
#1405=CARTESIAN_POINT('',(-18.6300507713235,42.8997916168741,15.));
#1406=CARTESIAN_POINT('Origin',(-18.3000513558418,43.9997916168741,15.));
#1407=CARTESIAN_POINT('',(-9.61886758471529,42.8997916168741,15.));
#1408=CARTESIAN_POINT('',(-9.6188675847153,42.8997916168741,15.));
#1409=CARTESIAN_POINT('Origin',(-9.61886758471529,43.9997916168741,15.));
#1410=CARTESIAN_POINT('Origin',(-9.6188675847153,43.9997916168741,15.));
#1411=CARTESIAN_POINT('',(9.58113242506918,42.8997916168741,15.));
#1412=CARTESIAN_POINT('Origin',(9.5811324275153,43.9997916168741,15.));
#1413=CARTESIAN_POINT('',(18.6300625149378,42.8997916168741,15.));
#1414=CARTESIAN_POINT('',(-9.6188675847153,42.8997916168741,15.));
#1415=CARTESIAN_POINT('Origin',(18.3000625149378,43.9997916168741,15.));
#1416=CARTESIAN_POINT('Origin',(-9.6188675847153,39.7571509297548,19.2426406871193));
#1417=CARTESIAN_POINT('',(-9.61886758471529,40.53496838906,18.4648232278141));
#1418=CARTESIAN_POINT('Origin',(-9.61886758471529,39.7571509297548,19.2426406871193));
#1419=CARTESIAN_POINT('',(-9.6188675847153,40.53496838906,18.4648232278141));
#1420=CARTESIAN_POINT('Origin',(-9.6188675847153,43.9997916168741,15.));
#1421=CARTESIAN_POINT('Origin',(-9.61886758471529,43.9997916168741,15.));
#1422=CARTESIAN_POINT('Origin',(-9.6188675847153,43.9997916168741,15.));
#1423=CARTESIAN_POINT('',(9.5811324275153,43.9997916168741,19.9));
#1424=CARTESIAN_POINT('',(-9.6188675847153,43.9997916168741,19.9));
#1425=CARTESIAN_POINT('Origin',(9.5811324275153,43.9997916168741,15.));
#1426=CARTESIAN_POINT('Origin',(-9.6188675847153,43.9997916168741,21.));
#1427=CARTESIAN_POINT('Origin',(9.5811324275153,43.9997916168741,21.));
#1428=CARTESIAN_POINT('Origin',(12.0811324152847,38.4997916168741,25.));
#1429=CARTESIAN_POINT('',(9.58113241528471,38.4997916168741,25.));
#1430=CARTESIAN_POINT('',(9.58113241528471,38.4997916168741,28.));
#1431=CARTESIAN_POINT('',(9.58113241528471,38.4997916168741,3.));
#1432=CARTESIAN_POINT('',(-9.61886758471529,38.4997916168741,25.));
#1433=CARTESIAN_POINT('',(9.58113241528471,38.4997916168741,25.));
#1434=CARTESIAN_POINT('',(-9.61886758471529,38.4997916168741,28.));
#1435=CARTESIAN_POINT('',(-9.61886758471529,38.4997916168741,3.));
#1436=CARTESIAN_POINT('',(9.58113241528471,38.4997916168741,28.));
#1437=CARTESIAN_POINT('Origin',(9.59999999999999,35.,25.));
#1438=CARTESIAN_POINT('',(8.09999999999999,35.,28.));
#1439=CARTESIAN_POINT('Origin',(9.59999999999999,35.,28.));
#1440=CARTESIAN_POINT('',(8.09999999999999,35.,25.));
#1441=CARTESIAN_POINT('',(8.09999999999999,35.,25.));
#1442=CARTESIAN_POINT('Origin',(9.59999999999999,35.,25.));
#1443=CARTESIAN_POINT('Origin',(-9.60000000000001,35.,25.));
#1444=CARTESIAN_POINT('',(-11.1,35.,28.));
#1445=CARTESIAN_POINT('Origin',(-9.60000000000001,35.,28.));
#1446=CARTESIAN_POINT('',(-11.1,35.,25.));
#1447=CARTESIAN_POINT('',(-11.1,35.,25.));
#1448=CARTESIAN_POINT('Origin',(-9.60000000000001,35.,25.));
#1449=CARTESIAN_POINT('Origin',(-0.0188675847152919,35.499895808437,25.));
#1450=CARTESIAN_POINT('',(12.0811324152847,38.4997916168741,25.));
#1451=CARTESIAN_POINT('',(4.7811324152847,38.499791616874,25.));
#1452=CARTESIAN_POINT('',(12.0811324152847,32.5,25.));
#1453=CARTESIAN_POINT('',(12.0811324152847,36.9998437126556,25.));
#1454=CARTESIAN_POINT('',(-12.1188675847153,32.5000000000001,25.));
#1455=CARTESIAN_POINT('',(22.2499942433806,32.5,25.));
#1456=CARTESIAN_POINT('',(-12.1188675847153,38.4997916168741,25.));
#1457=CARTESIAN_POINT('',(-12.1188675847153,33.9999479042186,25.));
#1458=CARTESIAN_POINT('',(-6.06886758471529,38.4997916168741,25.));
#1459=CARTESIAN_POINT('Origin',(12.0811324152847,38.4997916168741,3.));
#1460=CARTESIAN_POINT('',(12.0811324152847,38.4997916168741,3.));
#1461=CARTESIAN_POINT('',(12.0811324152847,38.4997916168741,3.));
#1462=CARTESIAN_POINT('',(12.0811324152847,32.5,3.));
#1463=CARTESIAN_POINT('',(12.0811324152847,43.3901204293555,3.));
#1464=CARTESIAN_POINT('',(12.0811324152847,32.5,3.));
#1465=CARTESIAN_POINT('Origin',(9.58113241528471,38.4997916168741,3.));
#1466=CARTESIAN_POINT('',(9.58113241528471,38.4997916168741,3.));
#1467=CARTESIAN_POINT('',(9.58113241528471,38.4997916168741,3.));
#1468=CARTESIAN_POINT('',(4.79056620764237,38.499791616874,3.));
#1469=CARTESIAN_POINT('Origin',(9.58113246865458,62.499791616874,3.));
#1470=CARTESIAN_POINT('',(9.58113246865458,62.499791616874,3.));
#1471=CARTESIAN_POINT('',(9.58113245284449,55.3901204187025,3.));
#1472=CARTESIAN_POINT('',(9.58113246865458,62.499791616874,28.));
#1473=CARTESIAN_POINT('',(9.58113241528471,38.4997916168741,28.));
#1474=CARTESIAN_POINT('',(9.58113246865458,62.499791616874,3.));
#1475=CARTESIAN_POINT('Origin',(12.2822207954534,64.0592656814476,3.));
#1476=CARTESIAN_POINT('',(12.2822207954534,64.0592656814476,3.));
#1477=CARTESIAN_POINT('',(4.26017402451512,59.4277348425799,3.));
#1478=CARTESIAN_POINT('',(12.2822207954534,64.0592656814476,28.));
#1479=CARTESIAN_POINT('',(9.58113246865458,62.499791616874,28.));
#1480=CARTESIAN_POINT('',(12.2822207954534,64.0592656814476,3.));
#1481=CARTESIAN_POINT('Origin',(15.6655662076424,48.2796328407238,28.));
#1482=CARTESIAN_POINT('',(-21.7499827301418,32.5,28.));
#1483=CARTESIAN_POINT('',(21.75,32.5,28.));
#1484=CARTESIAN_POINT('',(22.2499942433806,32.5,28.));
#1485=CARTESIAN_POINT('',(21.75,32.5,28.));
#1486=CARTESIAN_POINT('',(-9.6188675847153,62.4997916168741,28.));
#1487=CARTESIAN_POINT('',(-9.61886758471529,38.4997916168741,28.));
#1488=CARTESIAN_POINT('',(-9.61922851487687,62.5,28.));
#1489=CARTESIAN_POINT('',(-9.6188675847153,62.4997916168741,28.));
#1490=CARTESIAN_POINT('',(-9.62182502428255,62.5,28.));
#1491=CARTESIAN_POINT('',(9.57817497571745,62.5,28.));
#1492=CARTESIAN_POINT('',(-12.2881742554068,64.039417448661,28.));
#1493=CARTESIAN_POINT('',(-9.62182502428254,62.5,28.));
#1494=CARTESIAN_POINT('',(-12.,65.,28.));
#1495=CARTESIAN_POINT('Origin',(8.88178419700125E-15,48.2804492418369,3.));
#1496=CARTESIAN_POINT('',(12.2817304548979,64.0608984836739,3.));
#1497=CARTESIAN_POINT('',(12.,65.,3.));
#1498=CARTESIAN_POINT('',(9.57817497571746,62.5,3.));
#1499=CARTESIAN_POINT('',(9.57817497571746,62.5,3.));
#1500=CARTESIAN_POINT('',(-9.61922851487687,62.5,3.));
#1501=CARTESIAN_POINT('',(9.57817497571746,62.5,3.));
#1502=CARTESIAN_POINT('',(-9.6188675847153,62.4997916168741,3.));
#1503=CARTESIAN_POINT('',(-2.93321430997439,58.6398278989939,3.));
#1504=CARTESIAN_POINT('',(-9.61886758471529,38.4997916168741,3.));
#1505=CARTESIAN_POINT('',(-9.6188675847153,43.3901204293555,3.));
#1506=CARTESIAN_POINT('',(-12.1188675847153,38.4997916168741,3.));
#1507=CARTESIAN_POINT('',(-6.05943379235764,38.4997916168741,3.));
#1508=CARTESIAN_POINT('',(-12.1188675847153,32.5000000000001,3.));
#1509=CARTESIAN_POINT('',(-12.1188675847153,40.3902246209185,3.));
#1510=CARTESIAN_POINT('',(22.25,32.5,3.));
#1511=CARTESIAN_POINT('',(-11.1,35.,3.));
#1512=CARTESIAN_POINT('Origin',(-9.6,35.,3.));
#1513=CARTESIAN_POINT('',(8.1,35.,3.));
#1514=CARTESIAN_POINT('Origin',(9.6,35.,3.));
#1515=CARTESIAN_POINT('Origin',(-9.6188675847153,62.4997916168741,3.));
#1516=CARTESIAN_POINT('',(-9.61922851487687,62.5,3.));
#1517=CARTESIAN_POINT('',(-9.6188675847153,62.4997916168741,3.));
#1518=CARTESIAN_POINT('Origin',(-9.61886758471529,38.4997916168741,3.));
#1519=CARTESIAN_POINT('',(-9.61886758471529,38.4997916168741,3.));
#1520=CARTESIAN_POINT('Origin',(-12.1188675847153,38.4997916168741,3.));
#1521=CARTESIAN_POINT('',(-12.1188675847153,38.4997916168741,3.));
#1522=CARTESIAN_POINT('Origin',(-12.1188675847153,32.5000000000001,3.));
#1523=CARTESIAN_POINT('',(-12.1188675847153,32.5000000000001,3.));
#1524=CARTESIAN_POINT('Origin',(-12.2881742550034,64.03941744854,3.));
#1525=CARTESIAN_POINT('',(-12.2881746907017,64.0394176976608,3.));
#1526=CARTESIAN_POINT('',(-21.75,32.5,3.));
#1527=CARTESIAN_POINT('',(-12.,65.,3.));
#1528=CARTESIAN_POINT('',(-21.7499827301418,32.5,3.));
#1529=CARTESIAN_POINT('',(-12.2881742554068,64.039417448661,3.));
#1530=CARTESIAN_POINT('Origin',(-9.6,35.,0.));
#1531=CARTESIAN_POINT('',(-11.1,35.,0.));
#1532=CARTESIAN_POINT('',(-11.1,35.,0.));
#1533=CARTESIAN_POINT('Origin',(-9.6,35.,0.));
#1534=CARTESIAN_POINT('Origin',(9.6,35.,0.));
#1535=CARTESIAN_POINT('',(8.1,35.,0.));
#1536=CARTESIAN_POINT('',(8.1,35.,0.));
#1537=CARTESIAN_POINT('Origin',(9.6,35.,0.));
#1538=CARTESIAN_POINT('Origin',(9.57817497571746,62.5,0.));
#1539=CARTESIAN_POINT('',(9.57817497571746,62.5,0.));
#1540=CARTESIAN_POINT('',(-9.62182502428254,62.5,0.));
#1541=CARTESIAN_POINT('',(9.57817497571746,62.5,0.));
#1542=CARTESIAN_POINT('',(-9.62182502428254,62.5,0.));
#1543=CARTESIAN_POINT('',(9.57817497571746,62.5,0.));
#1544=CARTESIAN_POINT('Origin',(12.2817304548979,64.0608984836739,0.));
#1545=CARTESIAN_POINT('',(12.2817304548979,64.0608984836739,0.));
#1546=CARTESIAN_POINT('',(9.57817497571746,62.5,0.));
#1547=CARTESIAN_POINT('',(12.2817304548979,64.0608984836739,0.));
#1548=CARTESIAN_POINT('Origin',(21.75,32.5,0.));
#1549=CARTESIAN_POINT('',(21.75,32.5,0.));
#1550=CARTESIAN_POINT('',(12.,65.,0.));
#1551=CARTESIAN_POINT('',(21.75,32.5,0.));
#1552=CARTESIAN_POINT('Origin',(-21.75,32.5,0.));
#1553=CARTESIAN_POINT('',(-21.75,32.5,0.));
#1554=CARTESIAN_POINT('',(-21.75,32.5,0.));
#1555=CARTESIAN_POINT('',(22.25,32.5,0.));
#1556=CARTESIAN_POINT('Origin',(-12.2881746907017,64.0394176976608,0.));
#1557=CARTESIAN_POINT('',(-12.2881746907017,64.0394176976608,0.));
#1558=CARTESIAN_POINT('',(-12.,65.,0.));
#1559=CARTESIAN_POINT('',(-12.2881746907017,64.0394176976608,0.));
#1560=CARTESIAN_POINT('Origin',(-9.62182502428254,62.5,0.));
#1561=CARTESIAN_POINT('',(-9.62182502428254,62.5,0.));
#1562=CARTESIAN_POINT('Origin',(8.88178419700125E-15,48.2804492418369,0.));
#1563=UNCERTAINTY_MEASURE_WITH_UNIT(LENGTH_MEASURE(0.01),#1567,
'DISTANCE_ACCURACY_VALUE',
'Maximum model space distance between geometric entities at asserted c
onnectivities');
#1564=UNCERTAINTY_MEASURE_WITH_UNIT(LENGTH_MEASURE(0.01),#1567,
'DISTANCE_ACCURACY_VALUE',
'Maximum model space distance between geometric entities at asserted c
onnectivities');
#1565=(
GEOMETRIC_REPRESENTATION_CONTEXT(3)
GLOBAL_UNCERTAINTY_ASSIGNED_CONTEXT((#1563))
GLOBAL_UNIT_ASSIGNED_CONTEXT((#1567,#1569,#1570))
REPRESENTATION_CONTEXT('','3D')
);
#1566=(
GEOMETRIC_REPRESENTATION_CONTEXT(3)
GLOBAL_UNCERTAINTY_ASSIGNED_CONTEXT((#1564))
GLOBAL_UNIT_ASSIGNED_CONTEXT((#1567,#1569,#1570))
REPRESENTATION_CONTEXT('','3D')
);
#1567=(
LENGTH_UNIT()
NAMED_UNIT(*)
SI_UNIT(.MILLI.,.METRE.)
);
#1568=(
LENGTH_UNIT()
NAMED_UNIT(*)
SI_UNIT($,.METRE.)
);
#1569=(
NAMED_UNIT(*)
PLANE_ANGLE_UNIT()
SI_UNIT($,.RADIAN.)
);
#1570=(
NAMED_UNIT(*)
SI_UNIT($,.STERADIAN.)
SOLID_ANGLE_UNIT()
);
#1571=SHAPE_DEFINITION_REPRESENTATION(#1572,#1573);
#1572=PRODUCT_DEFINITION_SHAPE('',$,#1575);
#1573=SHAPE_REPRESENTATION('',(#933),#1565);
#1574=PRODUCT_DEFINITION_CONTEXT('part definition',#1579,'design');
#1575=PRODUCT_DEFINITION('Camera Mount/Gaurd','Camera Mount/Gaurd v3',#1576,
#1574);
#1576=PRODUCT_DEFINITION_FORMATION('',$,#1581);
#1577=PRODUCT_RELATED_PRODUCT_CATEGORY('Camera Mount/Gaurd v3',
'Camera Mount/Gaurd v3',(#1581));
#1578=APPLICATION_PROTOCOL_DEFINITION('international standard',
'automotive_design',2009,#1579);
#1579=APPLICATION_CONTEXT(
'Core Data for Automotive Mechanical Design Process');
#1580=PRODUCT_CONTEXT('part definition',#1579,'mechanical');
#1581=PRODUCT('Camera Mount/Gaurd','Camera Mount/Gaurd v3',$,(#1580));
#1582=PRESENTATION_STYLE_ASSIGNMENT((#1583));
#1583=SURFACE_STYLE_USAGE(.BOTH.,#1584);
#1584=SURFACE_SIDE_STYLE('',(#1585));
#1585=SURFACE_STYLE_FILL_AREA(#1586);
#1586=FILL_AREA_STYLE('Steel - Satin',(#1587));
#1587=FILL_AREA_STYLE_COLOUR('Steel - Satin',#1588);
#1588=COLOUR_RGB('Steel - Satin',0.627450980392157,0.627450980392157,0.627450980392157);
ENDSEC;
END-ISO-10303-21;
